%TF.GenerationSoftware,KiCad,Pcbnew,(6.0.7)*%
%TF.CreationDate,2022-10-29T10:50:57-05:00*%
%TF.ProjectId,BlastGate R2,426c6173-7447-4617-9465-2052322e6b69,rev?*%
%TF.SameCoordinates,Original*%
%TF.FileFunction,Legend,Top*%
%TF.FilePolarity,Positive*%
%FSLAX46Y46*%
G04 Gerber Fmt 4.6, Leading zero omitted, Abs format (unit mm)*
G04 Created by KiCad (PCBNEW (6.0.7)) date 2022-10-29 10:50:57*
%MOMM*%
%LPD*%
G01*
G04 APERTURE LIST*
%ADD10C,0.150000*%
%ADD11C,0.127000*%
%ADD12C,0.120000*%
%ADD13C,1.524000*%
G04 APERTURE END LIST*
D10*
X193667285Y-78684380D02*
X193667285Y-77684380D01*
X194048238Y-77684380D01*
X194143476Y-77732000D01*
X194191095Y-77779619D01*
X194238714Y-77874857D01*
X194238714Y-78017714D01*
X194191095Y-78112952D01*
X194143476Y-78160571D01*
X194048238Y-78208190D01*
X193667285Y-78208190D01*
X195238714Y-78684380D02*
X194905380Y-78208190D01*
X194667285Y-78684380D02*
X194667285Y-77684380D01*
X195048238Y-77684380D01*
X195143476Y-77732000D01*
X195191095Y-77779619D01*
X195238714Y-77874857D01*
X195238714Y-78017714D01*
X195191095Y-78112952D01*
X195143476Y-78160571D01*
X195048238Y-78208190D01*
X194667285Y-78208190D01*
X195857761Y-77684380D02*
X196048238Y-77684380D01*
X196143476Y-77732000D01*
X196238714Y-77827238D01*
X196286333Y-78017714D01*
X196286333Y-78351047D01*
X196238714Y-78541523D01*
X196143476Y-78636761D01*
X196048238Y-78684380D01*
X195857761Y-78684380D01*
X195762523Y-78636761D01*
X195667285Y-78541523D01*
X195619666Y-78351047D01*
X195619666Y-78017714D01*
X195667285Y-77827238D01*
X195762523Y-77732000D01*
X195857761Y-77684380D01*
X197238714Y-77732000D02*
X197143476Y-77684380D01*
X197000619Y-77684380D01*
X196857761Y-77732000D01*
X196762523Y-77827238D01*
X196714904Y-77922476D01*
X196667285Y-78112952D01*
X196667285Y-78255809D01*
X196714904Y-78446285D01*
X196762523Y-78541523D01*
X196857761Y-78636761D01*
X197000619Y-78684380D01*
X197095857Y-78684380D01*
X197238714Y-78636761D01*
X197286333Y-78589142D01*
X197286333Y-78255809D01*
X197095857Y-78255809D01*
X188563523Y-74064761D02*
X188706380Y-74112380D01*
X188944476Y-74112380D01*
X189039714Y-74064761D01*
X189087333Y-74017142D01*
X189134952Y-73921904D01*
X189134952Y-73826666D01*
X189087333Y-73731428D01*
X189039714Y-73683809D01*
X188944476Y-73636190D01*
X188754000Y-73588571D01*
X188658761Y-73540952D01*
X188611142Y-73493333D01*
X188563523Y-73398095D01*
X188563523Y-73302857D01*
X188611142Y-73207619D01*
X188658761Y-73160000D01*
X188754000Y-73112380D01*
X188992095Y-73112380D01*
X189134952Y-73160000D01*
X189563523Y-73588571D02*
X189896857Y-73588571D01*
X190039714Y-74112380D02*
X189563523Y-74112380D01*
X189563523Y-73112380D01*
X190039714Y-73112380D01*
X190468285Y-74112380D02*
X190468285Y-73112380D01*
X191039714Y-74112380D01*
X191039714Y-73112380D01*
X191468285Y-74064761D02*
X191611142Y-74112380D01*
X191849238Y-74112380D01*
X191944476Y-74064761D01*
X191992095Y-74017142D01*
X192039714Y-73921904D01*
X192039714Y-73826666D01*
X191992095Y-73731428D01*
X191944476Y-73683809D01*
X191849238Y-73636190D01*
X191658761Y-73588571D01*
X191563523Y-73540952D01*
X191515904Y-73493333D01*
X191468285Y-73398095D01*
X191468285Y-73302857D01*
X191515904Y-73207619D01*
X191563523Y-73160000D01*
X191658761Y-73112380D01*
X191896857Y-73112380D01*
X192039714Y-73160000D01*
X192468285Y-73588571D02*
X192801619Y-73588571D01*
X192944476Y-74112380D02*
X192468285Y-74112380D01*
X192468285Y-73112380D01*
X192944476Y-73112380D01*
X190754095Y-71445380D02*
X190754095Y-70445380D01*
X190992190Y-70445380D01*
X191135047Y-70493000D01*
X191230285Y-70588238D01*
X191277904Y-70683476D01*
X191325523Y-70873952D01*
X191325523Y-71016809D01*
X191277904Y-71207285D01*
X191230285Y-71302523D01*
X191135047Y-71397761D01*
X190992190Y-71445380D01*
X190754095Y-71445380D01*
X192325523Y-71350142D02*
X192277904Y-71397761D01*
X192135047Y-71445380D01*
X192039809Y-71445380D01*
X191896952Y-71397761D01*
X191801714Y-71302523D01*
X191754095Y-71207285D01*
X191706476Y-71016809D01*
X191706476Y-70873952D01*
X191754095Y-70683476D01*
X191801714Y-70588238D01*
X191896952Y-70493000D01*
X192039809Y-70445380D01*
X192135047Y-70445380D01*
X192277904Y-70493000D01*
X192325523Y-70540619D01*
X189928666Y-68032380D02*
X190166761Y-69032380D01*
X190357238Y-68318095D01*
X190547714Y-69032380D01*
X190785809Y-68032380D01*
X191166761Y-69032380D02*
X191166761Y-68032380D01*
X191976285Y-68508571D02*
X191642952Y-68508571D01*
X191642952Y-69032380D02*
X191642952Y-68032380D01*
X192119142Y-68032380D01*
X192500095Y-69032380D02*
X192500095Y-68032380D01*
X188317476Y-66619380D02*
X188317476Y-65619380D01*
X188698428Y-65619380D01*
X188793666Y-65667000D01*
X188841285Y-65714619D01*
X188888904Y-65809857D01*
X188888904Y-65952714D01*
X188841285Y-66047952D01*
X188793666Y-66095571D01*
X188698428Y-66143190D01*
X188317476Y-66143190D01*
X189507952Y-65619380D02*
X189698428Y-65619380D01*
X189793666Y-65667000D01*
X189888904Y-65762238D01*
X189936523Y-65952714D01*
X189936523Y-66286047D01*
X189888904Y-66476523D01*
X189793666Y-66571761D01*
X189698428Y-66619380D01*
X189507952Y-66619380D01*
X189412714Y-66571761D01*
X189317476Y-66476523D01*
X189269857Y-66286047D01*
X189269857Y-65952714D01*
X189317476Y-65762238D01*
X189412714Y-65667000D01*
X189507952Y-65619380D01*
X190269857Y-65619380D02*
X190507952Y-66619380D01*
X190698428Y-65905095D01*
X190888904Y-66619380D01*
X191127000Y-65619380D01*
X191507952Y-66095571D02*
X191841285Y-66095571D01*
X191984142Y-66619380D02*
X191507952Y-66619380D01*
X191507952Y-65619380D01*
X191984142Y-65619380D01*
X192984142Y-66619380D02*
X192650809Y-66143190D01*
X192412714Y-66619380D02*
X192412714Y-65619380D01*
X192793666Y-65619380D01*
X192888904Y-65667000D01*
X192936523Y-65714619D01*
X192984142Y-65809857D01*
X192984142Y-65952714D01*
X192936523Y-66047952D01*
X192888904Y-66095571D01*
X192793666Y-66143190D01*
X192412714Y-66143190D01*
X215955571Y-92003571D02*
X216003190Y-91860714D01*
X216050809Y-91813095D01*
X216146047Y-91765476D01*
X216288904Y-91765476D01*
X216384142Y-91813095D01*
X216431761Y-91860714D01*
X216479380Y-91955952D01*
X216479380Y-92336904D01*
X215479380Y-92336904D01*
X215479380Y-92003571D01*
X215527000Y-91908333D01*
X215574619Y-91860714D01*
X215669857Y-91813095D01*
X215765095Y-91813095D01*
X215860333Y-91860714D01*
X215907952Y-91908333D01*
X215955571Y-92003571D01*
X215955571Y-92336904D01*
%TO.C,J4*%
X179744619Y-59991666D02*
X179030333Y-59991666D01*
X178887476Y-59944047D01*
X178792238Y-59848809D01*
X178744619Y-59705952D01*
X178744619Y-59610714D01*
X179411285Y-60896428D02*
X178744619Y-60896428D01*
X179792238Y-60658333D02*
X179077952Y-60420238D01*
X179077952Y-61039285D01*
%TO.C,R2*%
X200211190Y-69032380D02*
X199839761Y-69032380D01*
X200025476Y-69032380D02*
X200025476Y-68032380D01*
X199963571Y-68175238D01*
X199901666Y-68270476D01*
X199839761Y-68318095D01*
X200613571Y-68032380D02*
X200675476Y-68032380D01*
X200737380Y-68080000D01*
X200768333Y-68127619D01*
X200799285Y-68222857D01*
X200830238Y-68413333D01*
X200830238Y-68651428D01*
X200799285Y-68841904D01*
X200768333Y-68937142D01*
X200737380Y-68984761D01*
X200675476Y-69032380D01*
X200613571Y-69032380D01*
X200551666Y-68984761D01*
X200520714Y-68937142D01*
X200489761Y-68841904D01*
X200458809Y-68651428D01*
X200458809Y-68413333D01*
X200489761Y-68222857D01*
X200520714Y-68127619D01*
X200551666Y-68080000D01*
X200613571Y-68032380D01*
X201108809Y-69032380D02*
X201108809Y-68032380D01*
X201480238Y-69032380D02*
X201201666Y-68460952D01*
X201480238Y-68032380D02*
X201108809Y-68603809D01*
%TO.C,POWSEL*%
X170108619Y-76303523D02*
X171108619Y-76303523D01*
X171108619Y-76684476D01*
X171061000Y-76779714D01*
X171013380Y-76827333D01*
X170918142Y-76874952D01*
X170775285Y-76874952D01*
X170680047Y-76827333D01*
X170632428Y-76779714D01*
X170584809Y-76684476D01*
X170584809Y-76303523D01*
X171108619Y-77494000D02*
X171108619Y-77684476D01*
X171061000Y-77779714D01*
X170965761Y-77874952D01*
X170775285Y-77922571D01*
X170441952Y-77922571D01*
X170251476Y-77874952D01*
X170156238Y-77779714D01*
X170108619Y-77684476D01*
X170108619Y-77494000D01*
X170156238Y-77398761D01*
X170251476Y-77303523D01*
X170441952Y-77255904D01*
X170775285Y-77255904D01*
X170965761Y-77303523D01*
X171061000Y-77398761D01*
X171108619Y-77494000D01*
X171108619Y-78255904D02*
X170108619Y-78494000D01*
X170822904Y-78684476D01*
X170108619Y-78874952D01*
X171108619Y-79113047D01*
X170156238Y-79446380D02*
X170108619Y-79589238D01*
X170108619Y-79827333D01*
X170156238Y-79922571D01*
X170203857Y-79970190D01*
X170299095Y-80017809D01*
X170394333Y-80017809D01*
X170489571Y-79970190D01*
X170537190Y-79922571D01*
X170584809Y-79827333D01*
X170632428Y-79636857D01*
X170680047Y-79541619D01*
X170727666Y-79494000D01*
X170822904Y-79446380D01*
X170918142Y-79446380D01*
X171013380Y-79494000D01*
X171061000Y-79541619D01*
X171108619Y-79636857D01*
X171108619Y-79874952D01*
X171061000Y-80017809D01*
X170632428Y-80446380D02*
X170632428Y-80779714D01*
X170108619Y-80922571D02*
X170108619Y-80446380D01*
X171108619Y-80446380D01*
X171108619Y-80922571D01*
X170108619Y-81827333D02*
X170108619Y-81351142D01*
X171108619Y-81351142D01*
%TO.C,R1*%
X200211190Y-66492380D02*
X199839761Y-66492380D01*
X200025476Y-66492380D02*
X200025476Y-65492380D01*
X199963571Y-65635238D01*
X199901666Y-65730476D01*
X199839761Y-65778095D01*
X200613571Y-65492380D02*
X200675476Y-65492380D01*
X200737380Y-65540000D01*
X200768333Y-65587619D01*
X200799285Y-65682857D01*
X200830238Y-65873333D01*
X200830238Y-66111428D01*
X200799285Y-66301904D01*
X200768333Y-66397142D01*
X200737380Y-66444761D01*
X200675476Y-66492380D01*
X200613571Y-66492380D01*
X200551666Y-66444761D01*
X200520714Y-66397142D01*
X200489761Y-66301904D01*
X200458809Y-66111428D01*
X200458809Y-65873333D01*
X200489761Y-65682857D01*
X200520714Y-65587619D01*
X200551666Y-65540000D01*
X200613571Y-65492380D01*
X201108809Y-66492380D02*
X201108809Y-65492380D01*
X201480238Y-66492380D02*
X201201666Y-65920952D01*
X201480238Y-65492380D02*
X201108809Y-66063809D01*
%TO.C,R7*%
X197302380Y-87088809D02*
X197302380Y-87460238D01*
X197302380Y-87274523D02*
X196302380Y-87274523D01*
X196445238Y-87336428D01*
X196540476Y-87398333D01*
X196588095Y-87460238D01*
X196302380Y-86686428D02*
X196302380Y-86624523D01*
X196350000Y-86562619D01*
X196397619Y-86531666D01*
X196492857Y-86500714D01*
X196683333Y-86469761D01*
X196921428Y-86469761D01*
X197111904Y-86500714D01*
X197207142Y-86531666D01*
X197254761Y-86562619D01*
X197302380Y-86624523D01*
X197302380Y-86686428D01*
X197254761Y-86748333D01*
X197207142Y-86779285D01*
X197111904Y-86810238D01*
X196921428Y-86841190D01*
X196683333Y-86841190D01*
X196492857Y-86810238D01*
X196397619Y-86779285D01*
X196350000Y-86748333D01*
X196302380Y-86686428D01*
X197302380Y-86191190D02*
X196302380Y-86191190D01*
X197302380Y-85819761D02*
X196730952Y-86098333D01*
X196302380Y-85819761D02*
X196873809Y-86191190D01*
%TO.C,SW2*%
X216939761Y-108394333D02*
X216987380Y-108251476D01*
X216987380Y-108013380D01*
X216939761Y-107918142D01*
X216892142Y-107870523D01*
X216796904Y-107822904D01*
X216701666Y-107822904D01*
X216606428Y-107870523D01*
X216558809Y-107918142D01*
X216511190Y-108013380D01*
X216463571Y-108203857D01*
X216415952Y-108299095D01*
X216368333Y-108346714D01*
X216273095Y-108394333D01*
X216177857Y-108394333D01*
X216082619Y-108346714D01*
X216035000Y-108299095D01*
X215987380Y-108203857D01*
X215987380Y-107965761D01*
X216035000Y-107822904D01*
X215987380Y-107489571D02*
X216987380Y-107251476D01*
X216273095Y-107061000D01*
X216987380Y-106870523D01*
X215987380Y-106632428D01*
X216082619Y-106299095D02*
X216035000Y-106251476D01*
X215987380Y-106156238D01*
X215987380Y-105918142D01*
X216035000Y-105822904D01*
X216082619Y-105775285D01*
X216177857Y-105727666D01*
X216273095Y-105727666D01*
X216415952Y-105775285D01*
X216987380Y-106346714D01*
X216987380Y-105727666D01*
%TO.C,SERVO*%
X214272761Y-90582476D02*
X214320380Y-90439619D01*
X214320380Y-90201523D01*
X214272761Y-90106285D01*
X214225142Y-90058666D01*
X214129904Y-90011047D01*
X214034666Y-90011047D01*
X213939428Y-90058666D01*
X213891809Y-90106285D01*
X213844190Y-90201523D01*
X213796571Y-90392000D01*
X213748952Y-90487238D01*
X213701333Y-90534857D01*
X213606095Y-90582476D01*
X213510857Y-90582476D01*
X213415619Y-90534857D01*
X213368000Y-90487238D01*
X213320380Y-90392000D01*
X213320380Y-90153904D01*
X213368000Y-90011047D01*
X213796571Y-89582476D02*
X213796571Y-89249142D01*
X214320380Y-89106285D02*
X214320380Y-89582476D01*
X213320380Y-89582476D01*
X213320380Y-89106285D01*
X214320380Y-88106285D02*
X213844190Y-88439619D01*
X214320380Y-88677714D02*
X213320380Y-88677714D01*
X213320380Y-88296761D01*
X213368000Y-88201523D01*
X213415619Y-88153904D01*
X213510857Y-88106285D01*
X213653714Y-88106285D01*
X213748952Y-88153904D01*
X213796571Y-88201523D01*
X213844190Y-88296761D01*
X213844190Y-88677714D01*
X213320380Y-87820571D02*
X214320380Y-87487238D01*
X213320380Y-87153904D01*
X213320380Y-86630095D02*
X213320380Y-86439619D01*
X213368000Y-86344380D01*
X213463238Y-86249142D01*
X213653714Y-86201523D01*
X213987047Y-86201523D01*
X214177523Y-86249142D01*
X214272761Y-86344380D01*
X214320380Y-86439619D01*
X214320380Y-86630095D01*
X214272761Y-86725333D01*
X214177523Y-86820571D01*
X213987047Y-86868190D01*
X213653714Y-86868190D01*
X213463238Y-86820571D01*
X213368000Y-86725333D01*
X213320380Y-86630095D01*
%TO.C,R3*%
X200211190Y-71572380D02*
X199839761Y-71572380D01*
X200025476Y-71572380D02*
X200025476Y-70572380D01*
X199963571Y-70715238D01*
X199901666Y-70810476D01*
X199839761Y-70858095D01*
X200613571Y-70572380D02*
X200675476Y-70572380D01*
X200737380Y-70620000D01*
X200768333Y-70667619D01*
X200799285Y-70762857D01*
X200830238Y-70953333D01*
X200830238Y-71191428D01*
X200799285Y-71381904D01*
X200768333Y-71477142D01*
X200737380Y-71524761D01*
X200675476Y-71572380D01*
X200613571Y-71572380D01*
X200551666Y-71524761D01*
X200520714Y-71477142D01*
X200489761Y-71381904D01*
X200458809Y-71191428D01*
X200458809Y-70953333D01*
X200489761Y-70762857D01*
X200520714Y-70667619D01*
X200551666Y-70620000D01*
X200613571Y-70572380D01*
X201108809Y-71572380D02*
X201108809Y-70572380D01*
X201480238Y-71572380D02*
X201201666Y-71000952D01*
X201480238Y-70572380D02*
X201108809Y-71143809D01*
%TO.C,C12*%
X187301142Y-94114857D02*
X187348761Y-94162476D01*
X187396380Y-94305333D01*
X187396380Y-94400571D01*
X187348761Y-94543428D01*
X187253523Y-94638666D01*
X187158285Y-94686285D01*
X186967809Y-94733904D01*
X186824952Y-94733904D01*
X186634476Y-94686285D01*
X186539238Y-94638666D01*
X186444000Y-94543428D01*
X186396380Y-94400571D01*
X186396380Y-94305333D01*
X186444000Y-94162476D01*
X186491619Y-94114857D01*
X187396380Y-93162476D02*
X187396380Y-93733904D01*
X187396380Y-93448190D02*
X186396380Y-93448190D01*
X186539238Y-93543428D01*
X186634476Y-93638666D01*
X186682095Y-93733904D01*
X186491619Y-92781523D02*
X186444000Y-92733904D01*
X186396380Y-92638666D01*
X186396380Y-92400571D01*
X186444000Y-92305333D01*
X186491619Y-92257714D01*
X186586857Y-92210095D01*
X186682095Y-92210095D01*
X186824952Y-92257714D01*
X187396380Y-92829142D01*
X187396380Y-92210095D01*
%TO.C,PROG*%
X183459380Y-77477714D02*
X182459380Y-77477714D01*
X182459380Y-77096761D01*
X182507000Y-77001523D01*
X182554619Y-76953904D01*
X182649857Y-76906285D01*
X182792714Y-76906285D01*
X182887952Y-76953904D01*
X182935571Y-77001523D01*
X182983190Y-77096761D01*
X182983190Y-77477714D01*
X183459380Y-75906285D02*
X182983190Y-76239619D01*
X183459380Y-76477714D02*
X182459380Y-76477714D01*
X182459380Y-76096761D01*
X182507000Y-76001523D01*
X182554619Y-75953904D01*
X182649857Y-75906285D01*
X182792714Y-75906285D01*
X182887952Y-75953904D01*
X182935571Y-76001523D01*
X182983190Y-76096761D01*
X182983190Y-76477714D01*
X182459380Y-75287238D02*
X182459380Y-75096761D01*
X182507000Y-75001523D01*
X182602238Y-74906285D01*
X182792714Y-74858666D01*
X183126047Y-74858666D01*
X183316523Y-74906285D01*
X183411761Y-75001523D01*
X183459380Y-75096761D01*
X183459380Y-75287238D01*
X183411761Y-75382476D01*
X183316523Y-75477714D01*
X183126047Y-75525333D01*
X182792714Y-75525333D01*
X182602238Y-75477714D01*
X182507000Y-75382476D01*
X182459380Y-75287238D01*
X182507000Y-73906285D02*
X182459380Y-74001523D01*
X182459380Y-74144380D01*
X182507000Y-74287238D01*
X182602238Y-74382476D01*
X182697476Y-74430095D01*
X182887952Y-74477714D01*
X183030809Y-74477714D01*
X183221285Y-74430095D01*
X183316523Y-74382476D01*
X183411761Y-74287238D01*
X183459380Y-74144380D01*
X183459380Y-74049142D01*
X183411761Y-73906285D01*
X183364142Y-73858666D01*
X183030809Y-73858666D01*
X183030809Y-74049142D01*
%TO.C,C6*%
X200493333Y-93829142D02*
X200445714Y-93876761D01*
X200302857Y-93924380D01*
X200207619Y-93924380D01*
X200064761Y-93876761D01*
X199969523Y-93781523D01*
X199921904Y-93686285D01*
X199874285Y-93495809D01*
X199874285Y-93352952D01*
X199921904Y-93162476D01*
X199969523Y-93067238D01*
X200064761Y-92972000D01*
X200207619Y-92924380D01*
X200302857Y-92924380D01*
X200445714Y-92972000D01*
X200493333Y-93019619D01*
X201350476Y-92924380D02*
X201160000Y-92924380D01*
X201064761Y-92972000D01*
X201017142Y-93019619D01*
X200921904Y-93162476D01*
X200874285Y-93352952D01*
X200874285Y-93733904D01*
X200921904Y-93829142D01*
X200969523Y-93876761D01*
X201064761Y-93924380D01*
X201255238Y-93924380D01*
X201350476Y-93876761D01*
X201398095Y-93829142D01*
X201445714Y-93733904D01*
X201445714Y-93495809D01*
X201398095Y-93400571D01*
X201350476Y-93352952D01*
X201255238Y-93305333D01*
X201064761Y-93305333D01*
X200969523Y-93352952D01*
X200921904Y-93400571D01*
X200874285Y-93495809D01*
%TO.C,C9*%
X209907142Y-76646666D02*
X209954761Y-76694285D01*
X210002380Y-76837142D01*
X210002380Y-76932380D01*
X209954761Y-77075238D01*
X209859523Y-77170476D01*
X209764285Y-77218095D01*
X209573809Y-77265714D01*
X209430952Y-77265714D01*
X209240476Y-77218095D01*
X209145238Y-77170476D01*
X209050000Y-77075238D01*
X209002380Y-76932380D01*
X209002380Y-76837142D01*
X209050000Y-76694285D01*
X209097619Y-76646666D01*
X210002380Y-76170476D02*
X210002380Y-75980000D01*
X209954761Y-75884761D01*
X209907142Y-75837142D01*
X209764285Y-75741904D01*
X209573809Y-75694285D01*
X209192857Y-75694285D01*
X209097619Y-75741904D01*
X209050000Y-75789523D01*
X209002380Y-75884761D01*
X209002380Y-76075238D01*
X209050000Y-76170476D01*
X209097619Y-76218095D01*
X209192857Y-76265714D01*
X209430952Y-76265714D01*
X209526190Y-76218095D01*
X209573809Y-76170476D01*
X209621428Y-76075238D01*
X209621428Y-75884761D01*
X209573809Y-75789523D01*
X209526190Y-75741904D01*
X209430952Y-75694285D01*
%TO.C,J3*%
X176681380Y-91641333D02*
X177395666Y-91641333D01*
X177538523Y-91688952D01*
X177633761Y-91784190D01*
X177681380Y-91927047D01*
X177681380Y-92022285D01*
X176681380Y-91260380D02*
X176681380Y-90641333D01*
X177062333Y-90974666D01*
X177062333Y-90831809D01*
X177109952Y-90736571D01*
X177157571Y-90688952D01*
X177252809Y-90641333D01*
X177490904Y-90641333D01*
X177586142Y-90688952D01*
X177633761Y-90736571D01*
X177681380Y-90831809D01*
X177681380Y-91117523D01*
X177633761Y-91212761D01*
X177586142Y-91260380D01*
%TO.C,C10*%
X194921142Y-104147857D02*
X194968761Y-104195476D01*
X195016380Y-104338333D01*
X195016380Y-104433571D01*
X194968761Y-104576428D01*
X194873523Y-104671666D01*
X194778285Y-104719285D01*
X194587809Y-104766904D01*
X194444952Y-104766904D01*
X194254476Y-104719285D01*
X194159238Y-104671666D01*
X194064000Y-104576428D01*
X194016380Y-104433571D01*
X194016380Y-104338333D01*
X194064000Y-104195476D01*
X194111619Y-104147857D01*
X195016380Y-103195476D02*
X195016380Y-103766904D01*
X195016380Y-103481190D02*
X194016380Y-103481190D01*
X194159238Y-103576428D01*
X194254476Y-103671666D01*
X194302095Y-103766904D01*
X194016380Y-102576428D02*
X194016380Y-102481190D01*
X194064000Y-102385952D01*
X194111619Y-102338333D01*
X194206857Y-102290714D01*
X194397333Y-102243095D01*
X194635428Y-102243095D01*
X194825904Y-102290714D01*
X194921142Y-102338333D01*
X194968761Y-102385952D01*
X195016380Y-102481190D01*
X195016380Y-102576428D01*
X194968761Y-102671666D01*
X194921142Y-102719285D01*
X194825904Y-102766904D01*
X194635428Y-102814523D01*
X194397333Y-102814523D01*
X194206857Y-102766904D01*
X194111619Y-102719285D01*
X194064000Y-102671666D01*
X194016380Y-102576428D01*
%TO.C,C4*%
X180189142Y-92876666D02*
X180236761Y-92924285D01*
X180284380Y-93067142D01*
X180284380Y-93162380D01*
X180236761Y-93305238D01*
X180141523Y-93400476D01*
X180046285Y-93448095D01*
X179855809Y-93495714D01*
X179712952Y-93495714D01*
X179522476Y-93448095D01*
X179427238Y-93400476D01*
X179332000Y-93305238D01*
X179284380Y-93162380D01*
X179284380Y-93067142D01*
X179332000Y-92924285D01*
X179379619Y-92876666D01*
X179617714Y-92019523D02*
X180284380Y-92019523D01*
X179236761Y-92257619D02*
X179951047Y-92495714D01*
X179951047Y-91876666D01*
%TO.C,C8*%
X180824142Y-103544666D02*
X180871761Y-103592285D01*
X180919380Y-103735142D01*
X180919380Y-103830380D01*
X180871761Y-103973238D01*
X180776523Y-104068476D01*
X180681285Y-104116095D01*
X180490809Y-104163714D01*
X180347952Y-104163714D01*
X180157476Y-104116095D01*
X180062238Y-104068476D01*
X179967000Y-103973238D01*
X179919380Y-103830380D01*
X179919380Y-103735142D01*
X179967000Y-103592285D01*
X180014619Y-103544666D01*
X180347952Y-102973238D02*
X180300333Y-103068476D01*
X180252714Y-103116095D01*
X180157476Y-103163714D01*
X180109857Y-103163714D01*
X180014619Y-103116095D01*
X179967000Y-103068476D01*
X179919380Y-102973238D01*
X179919380Y-102782761D01*
X179967000Y-102687523D01*
X180014619Y-102639904D01*
X180109857Y-102592285D01*
X180157476Y-102592285D01*
X180252714Y-102639904D01*
X180300333Y-102687523D01*
X180347952Y-102782761D01*
X180347952Y-102973238D01*
X180395571Y-103068476D01*
X180443190Y-103116095D01*
X180538428Y-103163714D01*
X180728904Y-103163714D01*
X180824142Y-103116095D01*
X180871761Y-103068476D01*
X180919380Y-102973238D01*
X180919380Y-102782761D01*
X180871761Y-102687523D01*
X180824142Y-102639904D01*
X180728904Y-102592285D01*
X180538428Y-102592285D01*
X180443190Y-102639904D01*
X180395571Y-102687523D01*
X180347952Y-102782761D01*
%TO.C,R11*%
X210002380Y-71848809D02*
X210002380Y-72220238D01*
X210002380Y-72034523D02*
X209002380Y-72034523D01*
X209145238Y-72096428D01*
X209240476Y-72158333D01*
X209288095Y-72220238D01*
X209002380Y-71446428D02*
X209002380Y-71384523D01*
X209050000Y-71322619D01*
X209097619Y-71291666D01*
X209192857Y-71260714D01*
X209383333Y-71229761D01*
X209621428Y-71229761D01*
X209811904Y-71260714D01*
X209907142Y-71291666D01*
X209954761Y-71322619D01*
X210002380Y-71384523D01*
X210002380Y-71446428D01*
X209954761Y-71508333D01*
X209907142Y-71539285D01*
X209811904Y-71570238D01*
X209621428Y-71601190D01*
X209383333Y-71601190D01*
X209192857Y-71570238D01*
X209097619Y-71539285D01*
X209050000Y-71508333D01*
X209002380Y-71446428D01*
X210002380Y-70951190D02*
X209002380Y-70951190D01*
X210002380Y-70579761D02*
X209430952Y-70858333D01*
X209002380Y-70579761D02*
X209573809Y-70951190D01*
%TO.C,C3*%
X183618142Y-86399666D02*
X183665761Y-86447285D01*
X183713380Y-86590142D01*
X183713380Y-86685380D01*
X183665761Y-86828238D01*
X183570523Y-86923476D01*
X183475285Y-86971095D01*
X183284809Y-87018714D01*
X183141952Y-87018714D01*
X182951476Y-86971095D01*
X182856238Y-86923476D01*
X182761000Y-86828238D01*
X182713380Y-86685380D01*
X182713380Y-86590142D01*
X182761000Y-86447285D01*
X182808619Y-86399666D01*
X182713380Y-86066333D02*
X182713380Y-85447285D01*
X183094333Y-85780619D01*
X183094333Y-85637761D01*
X183141952Y-85542523D01*
X183189571Y-85494904D01*
X183284809Y-85447285D01*
X183522904Y-85447285D01*
X183618142Y-85494904D01*
X183665761Y-85542523D01*
X183713380Y-85637761D01*
X183713380Y-85923476D01*
X183665761Y-86018714D01*
X183618142Y-86066333D01*
%TO.C,C13*%
X189841142Y-89669857D02*
X189888761Y-89717476D01*
X189936380Y-89860333D01*
X189936380Y-89955571D01*
X189888761Y-90098428D01*
X189793523Y-90193666D01*
X189698285Y-90241285D01*
X189507809Y-90288904D01*
X189364952Y-90288904D01*
X189174476Y-90241285D01*
X189079238Y-90193666D01*
X188984000Y-90098428D01*
X188936380Y-89955571D01*
X188936380Y-89860333D01*
X188984000Y-89717476D01*
X189031619Y-89669857D01*
X189936380Y-88717476D02*
X189936380Y-89288904D01*
X189936380Y-89003190D02*
X188936380Y-89003190D01*
X189079238Y-89098428D01*
X189174476Y-89193666D01*
X189222095Y-89288904D01*
X188936380Y-88384142D02*
X188936380Y-87765095D01*
X189317333Y-88098428D01*
X189317333Y-87955571D01*
X189364952Y-87860333D01*
X189412571Y-87812714D01*
X189507809Y-87765095D01*
X189745904Y-87765095D01*
X189841142Y-87812714D01*
X189888761Y-87860333D01*
X189936380Y-87955571D01*
X189936380Y-88241285D01*
X189888761Y-88336523D01*
X189841142Y-88384142D01*
%TO.C,SW1*%
X203771666Y-92287761D02*
X203914523Y-92335380D01*
X204152619Y-92335380D01*
X204247857Y-92287761D01*
X204295476Y-92240142D01*
X204343095Y-92144904D01*
X204343095Y-92049666D01*
X204295476Y-91954428D01*
X204247857Y-91906809D01*
X204152619Y-91859190D01*
X203962142Y-91811571D01*
X203866904Y-91763952D01*
X203819285Y-91716333D01*
X203771666Y-91621095D01*
X203771666Y-91525857D01*
X203819285Y-91430619D01*
X203866904Y-91383000D01*
X203962142Y-91335380D01*
X204200238Y-91335380D01*
X204343095Y-91383000D01*
X204676428Y-91335380D02*
X204914523Y-92335380D01*
X205105000Y-91621095D01*
X205295476Y-92335380D01*
X205533571Y-91335380D01*
X206438333Y-92335380D02*
X205866904Y-92335380D01*
X206152619Y-92335380D02*
X206152619Y-91335380D01*
X206057380Y-91478238D01*
X205962142Y-91573476D01*
X205866904Y-91621095D01*
D11*
%TO.C,C7*%
X208788000Y-65761809D02*
X208836380Y-65761809D01*
X208884761Y-65786000D01*
X208908952Y-65810190D01*
X208933142Y-65858571D01*
X208957333Y-65955333D01*
X208957333Y-66076285D01*
X208933142Y-66173047D01*
X208908952Y-66221428D01*
X208884761Y-66245619D01*
X208836380Y-66269809D01*
X208788000Y-66269809D01*
X208739619Y-66245619D01*
X208715428Y-66221428D01*
X208691238Y-66173047D01*
X208667047Y-66076285D01*
X208667047Y-65955333D01*
X208691238Y-65858571D01*
X208715428Y-65810190D01*
X208739619Y-65786000D01*
X208788000Y-65761809D01*
X209175047Y-66221428D02*
X209199238Y-66245619D01*
X209175047Y-66269809D01*
X209150857Y-66245619D01*
X209175047Y-66221428D01*
X209175047Y-66269809D01*
X209683047Y-66269809D02*
X209392761Y-66269809D01*
X209537904Y-66269809D02*
X209537904Y-65761809D01*
X209489523Y-65834380D01*
X209441142Y-65882761D01*
X209392761Y-65906952D01*
X210118476Y-65931142D02*
X210118476Y-66269809D01*
X209900761Y-65931142D02*
X209900761Y-66197238D01*
X209924952Y-66245619D01*
X209973333Y-66269809D01*
X210045904Y-66269809D01*
X210094285Y-66245619D01*
X210118476Y-66221428D01*
X210287809Y-65931142D02*
X210481333Y-65931142D01*
X210360380Y-66269809D02*
X210360380Y-65834380D01*
X210384571Y-65786000D01*
X210432952Y-65761809D01*
X210481333Y-65761809D01*
D10*
%TO.C,RST*%
X211034380Y-61412380D02*
X210701047Y-60936190D01*
X210462952Y-61412380D02*
X210462952Y-60412380D01*
X210843904Y-60412380D01*
X210939142Y-60460000D01*
X210986761Y-60507619D01*
X211034380Y-60602857D01*
X211034380Y-60745714D01*
X210986761Y-60840952D01*
X210939142Y-60888571D01*
X210843904Y-60936190D01*
X210462952Y-60936190D01*
X211415333Y-61364761D02*
X211558190Y-61412380D01*
X211796285Y-61412380D01*
X211891523Y-61364761D01*
X211939142Y-61317142D01*
X211986761Y-61221904D01*
X211986761Y-61126666D01*
X211939142Y-61031428D01*
X211891523Y-60983809D01*
X211796285Y-60936190D01*
X211605809Y-60888571D01*
X211510571Y-60840952D01*
X211462952Y-60793333D01*
X211415333Y-60698095D01*
X211415333Y-60602857D01*
X211462952Y-60507619D01*
X211510571Y-60460000D01*
X211605809Y-60412380D01*
X211843904Y-60412380D01*
X211986761Y-60460000D01*
X212272476Y-60412380D02*
X212843904Y-60412380D01*
X212558190Y-61412380D02*
X212558190Y-60412380D01*
%TO.C,D6*%
X187269380Y-68048095D02*
X186269380Y-68048095D01*
X186269380Y-67810000D01*
X186317000Y-67667142D01*
X186412238Y-67571904D01*
X186507476Y-67524285D01*
X186697952Y-67476666D01*
X186840809Y-67476666D01*
X187031285Y-67524285D01*
X187126523Y-67571904D01*
X187221761Y-67667142D01*
X187269380Y-67810000D01*
X187269380Y-68048095D01*
X186269380Y-66619523D02*
X186269380Y-66810000D01*
X186317000Y-66905238D01*
X186364619Y-66952857D01*
X186507476Y-67048095D01*
X186697952Y-67095714D01*
X187078904Y-67095714D01*
X187174142Y-67048095D01*
X187221761Y-67000476D01*
X187269380Y-66905238D01*
X187269380Y-66714761D01*
X187221761Y-66619523D01*
X187174142Y-66571904D01*
X187078904Y-66524285D01*
X186840809Y-66524285D01*
X186745571Y-66571904D01*
X186697952Y-66619523D01*
X186650333Y-66714761D01*
X186650333Y-66905238D01*
X186697952Y-67000476D01*
X186745571Y-67048095D01*
X186840809Y-67095714D01*
%TO.C,R4*%
X200211190Y-74112380D02*
X199839761Y-74112380D01*
X200025476Y-74112380D02*
X200025476Y-73112380D01*
X199963571Y-73255238D01*
X199901666Y-73350476D01*
X199839761Y-73398095D01*
X200613571Y-73112380D02*
X200675476Y-73112380D01*
X200737380Y-73160000D01*
X200768333Y-73207619D01*
X200799285Y-73302857D01*
X200830238Y-73493333D01*
X200830238Y-73731428D01*
X200799285Y-73921904D01*
X200768333Y-74017142D01*
X200737380Y-74064761D01*
X200675476Y-74112380D01*
X200613571Y-74112380D01*
X200551666Y-74064761D01*
X200520714Y-74017142D01*
X200489761Y-73921904D01*
X200458809Y-73731428D01*
X200458809Y-73493333D01*
X200489761Y-73302857D01*
X200520714Y-73207619D01*
X200551666Y-73160000D01*
X200613571Y-73112380D01*
X201108809Y-74112380D02*
X201108809Y-73112380D01*
X201480238Y-74112380D02*
X201201666Y-73540952D01*
X201480238Y-73112380D02*
X201108809Y-73683809D01*
%TO.C,C5*%
X208891142Y-100877666D02*
X208938761Y-100925285D01*
X208986380Y-101068142D01*
X208986380Y-101163380D01*
X208938761Y-101306238D01*
X208843523Y-101401476D01*
X208748285Y-101449095D01*
X208557809Y-101496714D01*
X208414952Y-101496714D01*
X208224476Y-101449095D01*
X208129238Y-101401476D01*
X208034000Y-101306238D01*
X207986380Y-101163380D01*
X207986380Y-101068142D01*
X208034000Y-100925285D01*
X208081619Y-100877666D01*
X207986380Y-99972904D02*
X207986380Y-100449095D01*
X208462571Y-100496714D01*
X208414952Y-100449095D01*
X208367333Y-100353857D01*
X208367333Y-100115761D01*
X208414952Y-100020523D01*
X208462571Y-99972904D01*
X208557809Y-99925285D01*
X208795904Y-99925285D01*
X208891142Y-99972904D01*
X208938761Y-100020523D01*
X208986380Y-100115761D01*
X208986380Y-100353857D01*
X208938761Y-100449095D01*
X208891142Y-100496714D01*
%TO.C,R5*%
X200211190Y-76652380D02*
X199839761Y-76652380D01*
X200025476Y-76652380D02*
X200025476Y-75652380D01*
X199963571Y-75795238D01*
X199901666Y-75890476D01*
X199839761Y-75938095D01*
X200613571Y-75652380D02*
X200675476Y-75652380D01*
X200737380Y-75700000D01*
X200768333Y-75747619D01*
X200799285Y-75842857D01*
X200830238Y-76033333D01*
X200830238Y-76271428D01*
X200799285Y-76461904D01*
X200768333Y-76557142D01*
X200737380Y-76604761D01*
X200675476Y-76652380D01*
X200613571Y-76652380D01*
X200551666Y-76604761D01*
X200520714Y-76557142D01*
X200489761Y-76461904D01*
X200458809Y-76271428D01*
X200458809Y-76033333D01*
X200489761Y-75842857D01*
X200520714Y-75747619D01*
X200551666Y-75700000D01*
X200613571Y-75652380D01*
X201108809Y-76652380D02*
X201108809Y-75652380D01*
X201480238Y-76652380D02*
X201201666Y-76080952D01*
X201480238Y-75652380D02*
X201108809Y-76223809D01*
%TO.C,FTDI*%
X213415571Y-82256190D02*
X213415571Y-82589523D01*
X213939380Y-82589523D02*
X212939380Y-82589523D01*
X212939380Y-82113333D01*
X212939380Y-81875238D02*
X212939380Y-81303809D01*
X213939380Y-81589523D02*
X212939380Y-81589523D01*
X213939380Y-80970476D02*
X212939380Y-80970476D01*
X212939380Y-80732380D01*
X212987000Y-80589523D01*
X213082238Y-80494285D01*
X213177476Y-80446666D01*
X213367952Y-80399047D01*
X213510809Y-80399047D01*
X213701285Y-80446666D01*
X213796523Y-80494285D01*
X213891761Y-80589523D01*
X213939380Y-80732380D01*
X213939380Y-80970476D01*
X213939380Y-79970476D02*
X212939380Y-79970476D01*
D12*
%TO.C,J4*%
X169037000Y-70485000D02*
X184277000Y-70485000D01*
X184277000Y-70485000D02*
X184277000Y-57785000D01*
X184277000Y-57785000D02*
X169037000Y-57785000D01*
X169037000Y-57785000D02*
X169037000Y-70485000D01*
%TO.C,D4*%
X197180000Y-72525000D02*
X193120000Y-72525000D01*
X193120000Y-72525000D02*
X193120000Y-74795000D01*
X193120000Y-74795000D02*
X197180000Y-74795000D01*
%TO.C,R2*%
X199932936Y-69490000D02*
X201387064Y-69490000D01*
X199932936Y-67670000D02*
X201387064Y-67670000D01*
%TO.C,POWSEL*%
X179070000Y-72200000D02*
X171450000Y-72200000D01*
X171450000Y-72200000D02*
X171450000Y-84900000D01*
X171450000Y-84900000D02*
X179070000Y-84900000D01*
X179070000Y-84900000D02*
X179070000Y-72200000D01*
%TO.C,R1*%
X199932936Y-65130000D02*
X201387064Y-65130000D01*
X199932936Y-66950000D02*
X201387064Y-66950000D01*
%TO.C,R7*%
X197760000Y-87367064D02*
X197760000Y-85912936D01*
X195940000Y-87367064D02*
X195940000Y-85912936D01*
%TO.C,SW2*%
X205902000Y-105154500D02*
X205902000Y-104844500D01*
X205902000Y-109364500D02*
X205902000Y-109054500D01*
X214722000Y-109364500D02*
X214722000Y-109054500D01*
X208812000Y-104144500D02*
X207812000Y-104144500D01*
X214722000Y-104844500D02*
X214722000Y-105154500D01*
X207812000Y-104144500D02*
X208312000Y-104644500D01*
X214722000Y-109364500D02*
X205902000Y-109364500D01*
X205902000Y-104844500D02*
X214722000Y-104844500D01*
X208312000Y-104644500D02*
X208812000Y-104144500D01*
%TO.C,D1*%
X193120000Y-67175000D02*
X197180000Y-67175000D01*
X197180000Y-64905000D02*
X193120000Y-64905000D01*
X193120000Y-64905000D02*
X193120000Y-67175000D01*
%TO.C,SERVO*%
X217230000Y-89012000D02*
X214570000Y-89012000D01*
X217230000Y-91612000D02*
X215900000Y-91612000D01*
X217230000Y-89012000D02*
X217230000Y-83872000D01*
X217230000Y-90282000D02*
X217230000Y-91612000D01*
X217230000Y-83872000D02*
X214570000Y-83872000D01*
X214570000Y-89012000D02*
X214570000Y-83872000D01*
%TO.C,R3*%
X199932936Y-72030000D02*
X201387064Y-72030000D01*
X199932936Y-70210000D02*
X201387064Y-70210000D01*
%TO.C,C12*%
X189402000Y-91108590D02*
X191598000Y-91108590D01*
X187924000Y-93309590D02*
X193076000Y-93309590D01*
X188020000Y-92748590D02*
X189460000Y-92748590D01*
X191540000Y-92148590D02*
X192724000Y-92148590D01*
X191540000Y-92789590D02*
X192991000Y-92789590D01*
X188715000Y-91588590D02*
X189460000Y-91588590D01*
X188674000Y-91628590D02*
X189460000Y-91628590D01*
X191540000Y-91868590D02*
X192535000Y-91868590D01*
X191540000Y-91308590D02*
X191943000Y-91308590D01*
X188801000Y-91508590D02*
X189460000Y-91508590D01*
X191540000Y-91268590D02*
X191883000Y-91268590D01*
X187935000Y-93189590D02*
X189460000Y-93189590D01*
X191540000Y-92748590D02*
X192980000Y-92748590D01*
X191540000Y-91548590D02*
X192243000Y-91548590D01*
X191540000Y-91228590D02*
X191819000Y-91228590D01*
X188895000Y-91428590D02*
X189460000Y-91428590D01*
X187950000Y-93069590D02*
X189460000Y-93069590D01*
X188190000Y-92308590D02*
X189460000Y-92308590D01*
X187964000Y-92989590D02*
X189460000Y-92989590D01*
X190216000Y-90868590D02*
X190784000Y-90868590D01*
X188636000Y-91668590D02*
X189460000Y-91668590D01*
X191540000Y-93029590D02*
X193043000Y-93029590D01*
X191540000Y-91468590D02*
X192153000Y-91468590D01*
X188045000Y-92668590D02*
X189460000Y-92668590D01*
X191540000Y-91788590D02*
X192471000Y-91788590D01*
X191540000Y-93189590D02*
X193065000Y-93189590D01*
X188325000Y-92068590D02*
X189460000Y-92068590D01*
X191540000Y-91748590D02*
X192437000Y-91748590D01*
X191540000Y-92989590D02*
X193036000Y-92989590D01*
X191540000Y-91348590D02*
X192000000Y-91348590D01*
X188435000Y-91908590D02*
X189460000Y-91908590D01*
X189181000Y-91228590D02*
X189460000Y-91228590D01*
X191540000Y-91428590D02*
X192105000Y-91428590D01*
X189249000Y-91188590D02*
X189460000Y-91188590D01*
X187939000Y-93149590D02*
X189460000Y-93149590D01*
X188465000Y-91868590D02*
X189460000Y-91868590D01*
X188599000Y-91708590D02*
X189460000Y-91708590D01*
X191540000Y-92108590D02*
X192700000Y-92108590D01*
X191540000Y-91708590D02*
X192401000Y-91708590D01*
X191540000Y-91988590D02*
X192622000Y-91988590D01*
X188757000Y-91548590D02*
X189460000Y-91548590D01*
X191540000Y-92588590D02*
X192928000Y-92588590D01*
X188135000Y-92428590D02*
X189460000Y-92428590D01*
X188210000Y-92268590D02*
X189460000Y-92268590D01*
X188563000Y-91748590D02*
X189460000Y-91748590D01*
X191540000Y-92468590D02*
X192882000Y-92468590D01*
X191540000Y-92909590D02*
X193020000Y-92909590D01*
X191540000Y-91188590D02*
X191751000Y-91188590D01*
X191540000Y-92068590D02*
X192675000Y-92068590D01*
X191540000Y-93229590D02*
X193069000Y-93229590D01*
X187980000Y-92909590D02*
X189460000Y-92909590D01*
X189982000Y-90908590D02*
X191018000Y-90908590D01*
X187922000Y-93349590D02*
X193078000Y-93349590D01*
X188072000Y-92588590D02*
X189460000Y-92588590D01*
X188496000Y-91828590D02*
X189460000Y-91828590D01*
X191540000Y-91948590D02*
X192595000Y-91948590D01*
X191540000Y-92829590D02*
X193001000Y-92829590D01*
X191540000Y-92188590D02*
X192747000Y-92188590D01*
X191540000Y-91828590D02*
X192504000Y-91828590D01*
X189489000Y-91068590D02*
X191511000Y-91068590D01*
X188378000Y-91988590D02*
X189460000Y-91988590D01*
X187931000Y-93229590D02*
X189460000Y-93229590D01*
X191540000Y-91588590D02*
X192285000Y-91588590D01*
X187972000Y-92949590D02*
X189460000Y-92949590D01*
X191540000Y-93069590D02*
X193050000Y-93069590D01*
X188032000Y-92708590D02*
X189460000Y-92708590D01*
X188102000Y-92508590D02*
X189460000Y-92508590D01*
X188946000Y-91388590D02*
X189460000Y-91388590D01*
X189025000Y-96274365D02*
X189025000Y-95774365D01*
X187944000Y-93109590D02*
X189460000Y-93109590D01*
X191540000Y-92268590D02*
X192790000Y-92268590D01*
X191540000Y-91388590D02*
X192054000Y-91388590D01*
X188405000Y-91948590D02*
X189460000Y-91948590D01*
X187957000Y-93029590D02*
X189460000Y-93029590D01*
X187920000Y-93429590D02*
X193080000Y-93429590D01*
X191540000Y-92388590D02*
X192848000Y-92388590D01*
X191540000Y-91508590D02*
X192199000Y-91508590D01*
X191540000Y-92508590D02*
X192898000Y-92508590D01*
X188276000Y-92148590D02*
X189460000Y-92148590D01*
X191540000Y-92228590D02*
X192768000Y-92228590D01*
X188086000Y-92548590D02*
X189460000Y-92548590D01*
X189117000Y-91268590D02*
X189460000Y-91268590D01*
X191540000Y-92428590D02*
X192865000Y-92428590D01*
X191540000Y-92708590D02*
X192968000Y-92708590D01*
X188009000Y-92789590D02*
X189460000Y-92789590D01*
X188775000Y-96024365D02*
X189275000Y-96024365D01*
X191540000Y-91668590D02*
X192364000Y-91668590D01*
X189823000Y-90948590D02*
X191177000Y-90948590D01*
X188152000Y-92388590D02*
X189460000Y-92388590D01*
X191540000Y-93109590D02*
X193056000Y-93109590D01*
X187920000Y-93469590D02*
X193080000Y-93469590D01*
X191540000Y-92308590D02*
X192810000Y-92308590D01*
X189695000Y-90988590D02*
X191305000Y-90988590D01*
X188529000Y-91788590D02*
X189460000Y-91788590D01*
X188118000Y-92468590D02*
X189460000Y-92468590D01*
X189322000Y-91148590D02*
X191678000Y-91148590D01*
X191540000Y-92348590D02*
X192829000Y-92348590D01*
X189585000Y-91028590D02*
X191415000Y-91028590D01*
X188232000Y-92228590D02*
X189460000Y-92228590D01*
X188253000Y-92188590D02*
X189460000Y-92188590D01*
X188847000Y-91468590D02*
X189460000Y-91468590D01*
X191540000Y-92028590D02*
X192649000Y-92028590D01*
X188300000Y-92108590D02*
X189460000Y-92108590D01*
X187999000Y-92829590D02*
X189460000Y-92829590D01*
X191540000Y-91908590D02*
X192565000Y-91908590D01*
X191540000Y-92628590D02*
X192942000Y-92628590D01*
X191540000Y-92668590D02*
X192955000Y-92668590D01*
X187927000Y-93269590D02*
X193073000Y-93269590D01*
X188351000Y-92028590D02*
X189460000Y-92028590D01*
X189000000Y-91348590D02*
X189460000Y-91348590D01*
X191540000Y-92949590D02*
X193028000Y-92949590D01*
X187989000Y-92869590D02*
X189460000Y-92869590D01*
X191540000Y-91628590D02*
X192326000Y-91628590D01*
X189057000Y-91308590D02*
X189460000Y-91308590D01*
X187921000Y-93389590D02*
X193079000Y-93389590D01*
X188058000Y-92628590D02*
X189460000Y-92628590D01*
X188171000Y-92348590D02*
X189460000Y-92348590D01*
X191540000Y-92548590D02*
X192914000Y-92548590D01*
X191540000Y-93149590D02*
X193061000Y-93149590D01*
X191540000Y-92869590D02*
X193011000Y-92869590D01*
X193120000Y-93469590D02*
G75*
G03*
X193120000Y-93469590I-2620000J0D01*
G01*
%TO.C,PROG*%
X189690000Y-77724000D02*
G75*
G03*
X189690000Y-77724000I-3000000J0D01*
G01*
%TO.C,C6*%
X201371252Y-94382000D02*
X199948748Y-94382000D01*
X201371252Y-92562000D02*
X199948748Y-92562000D01*
%TO.C,C9*%
X210460000Y-75768748D02*
X210460000Y-77191252D01*
X208640000Y-75768748D02*
X208640000Y-77191252D01*
%TO.C,J3*%
X175389000Y-95068000D02*
X175389000Y-94648000D01*
X175389000Y-87548000D02*
X175389000Y-87968000D01*
X171439000Y-95068000D02*
X171039000Y-95068000D01*
X175619000Y-89548000D02*
X176069000Y-89548000D01*
X173409000Y-95068000D02*
X175389000Y-95068000D01*
X171039000Y-87548000D02*
X171439000Y-87548000D01*
X176069000Y-89998000D02*
X176069000Y-89548000D01*
X173409000Y-87548000D02*
X175389000Y-87548000D01*
%TO.C,C10*%
X191129000Y-98388590D02*
X195410000Y-98388590D01*
X198290000Y-98828590D02*
X202758000Y-98828590D01*
X191292000Y-98068590D02*
X195410000Y-98068590D01*
X198290000Y-98108590D02*
X202430000Y-98108590D01*
X193267000Y-95868590D02*
X200433000Y-95868590D01*
X190612000Y-100028590D02*
X195410000Y-100028590D01*
X198290000Y-97428590D02*
X202010000Y-97428590D01*
X192843000Y-96188590D02*
X200857000Y-96188590D01*
X191092000Y-98468590D02*
X195410000Y-98468590D01*
X198290000Y-98948590D02*
X202803000Y-98948590D01*
X190605000Y-100068590D02*
X203095000Y-100068590D01*
X191228000Y-98188590D02*
X195410000Y-98188590D01*
X198290000Y-97548590D02*
X202093000Y-97548590D01*
X198290000Y-98388590D02*
X202571000Y-98388590D01*
X190565000Y-100348590D02*
X203135000Y-100348590D01*
X190532000Y-100709590D02*
X203168000Y-100709590D01*
X190911000Y-98908590D02*
X195410000Y-98908590D01*
X192795000Y-96228590D02*
X200905000Y-96228590D01*
X192401000Y-96588590D02*
X201299000Y-96588590D01*
X198290000Y-99148590D02*
X202871000Y-99148590D01*
X198290000Y-99788590D02*
X203042000Y-99788590D01*
X192656000Y-96348590D02*
X201044000Y-96348590D01*
X191453000Y-97788590D02*
X195410000Y-97788590D01*
X198290000Y-98668590D02*
X202695000Y-98668590D01*
X191359000Y-97948590D02*
X195410000Y-97948590D01*
X192031000Y-96988590D02*
X201669000Y-96988590D01*
X198290000Y-97308590D02*
X201923000Y-97308590D01*
X193575000Y-95668590D02*
X200125000Y-95668590D01*
X190926000Y-98868590D02*
X195410000Y-98868590D01*
X191005000Y-98668590D02*
X195410000Y-98668590D01*
X198290000Y-99468590D02*
X202966000Y-99468590D01*
X192442000Y-96548590D02*
X201258000Y-96548590D01*
X191690000Y-97428590D02*
X195410000Y-97428590D01*
X198290000Y-97468590D02*
X202038000Y-97468590D01*
X190560000Y-100388590D02*
X203140000Y-100388590D01*
X190528000Y-100789590D02*
X203172000Y-100789590D01*
X191429000Y-97828590D02*
X195410000Y-97828590D01*
X194866000Y-95068590D02*
X198834000Y-95068590D01*
X194440000Y-95228590D02*
X199260000Y-95228590D01*
X194086000Y-95388590D02*
X199614000Y-95388590D01*
X190544000Y-100549590D02*
X203156000Y-100549590D01*
X198290000Y-98588590D02*
X202661000Y-98588590D01*
X198290000Y-98228590D02*
X202492000Y-98228590D01*
X192994000Y-96068590D02*
X200706000Y-96068590D01*
X190570000Y-100308590D02*
X203130000Y-100308590D01*
X198290000Y-98028590D02*
X202386000Y-98028590D01*
X190538000Y-100629590D02*
X203162000Y-100629590D01*
X191503000Y-97708590D02*
X195410000Y-97708590D01*
X198290000Y-97908590D02*
X202318000Y-97908590D01*
X191405000Y-97868590D02*
X195410000Y-97868590D01*
X191662000Y-97468590D02*
X195410000Y-97468590D01*
X190520000Y-101069590D02*
X203180000Y-101069590D01*
X190816000Y-99188590D02*
X195410000Y-99188590D01*
X198290000Y-99268590D02*
X202909000Y-99268590D01*
X193642000Y-95628590D02*
X200058000Y-95628590D01*
X190552000Y-100469590D02*
X203148000Y-100469590D01*
X191478000Y-97748590D02*
X195410000Y-97748590D01*
X198290000Y-99988590D02*
X203081000Y-99988590D01*
X191022000Y-98628590D02*
X195410000Y-98628590D01*
X192483000Y-96508590D02*
X201217000Y-96508590D01*
X198290000Y-97988590D02*
X202364000Y-97988590D01*
X198290000Y-99308590D02*
X202921000Y-99308590D01*
X194989000Y-95028590D02*
X198711000Y-95028590D01*
X190756000Y-99388590D02*
X195410000Y-99388590D01*
X194006000Y-95428590D02*
X199694000Y-95428590D01*
X190724000Y-99508590D02*
X195410000Y-99508590D01*
X191900000Y-97148590D02*
X201800000Y-97148590D01*
X191168000Y-98308590D02*
X195410000Y-98308590D01*
X193210000Y-95908590D02*
X200490000Y-95908590D01*
X192612000Y-96388590D02*
X201088000Y-96388590D01*
X192525000Y-96468590D02*
X201175000Y-96468590D01*
X195122000Y-94988590D02*
X198578000Y-94988590D01*
X193046000Y-96028590D02*
X200654000Y-96028590D01*
X190767000Y-99348590D02*
X195410000Y-99348590D01*
X198290000Y-99028590D02*
X202831000Y-99028590D01*
X191314000Y-98028590D02*
X195410000Y-98028590D01*
X193275000Y-107926672D02*
X193275000Y-106676672D01*
X190658000Y-99788590D02*
X195410000Y-99788590D01*
X190619000Y-99988590D02*
X195410000Y-99988590D01*
X195609000Y-94868590D02*
X198091000Y-94868590D01*
X198290000Y-98148590D02*
X202451000Y-98148590D01*
X191208000Y-98228590D02*
X195410000Y-98228590D01*
X191148000Y-98348590D02*
X195410000Y-98348590D01*
X190535000Y-100669590D02*
X203165000Y-100669590D01*
X193511000Y-95708590D02*
X200189000Y-95708590D01*
X190548000Y-100509590D02*
X203152000Y-100509590D01*
X198290000Y-98628590D02*
X202678000Y-98628590D01*
X192283000Y-96708590D02*
X201417000Y-96708590D01*
X193929000Y-95468590D02*
X199771000Y-95468590D01*
X190869000Y-99028590D02*
X195410000Y-99028590D01*
X194750000Y-95108590D02*
X198950000Y-95108590D01*
X190779000Y-99308590D02*
X195410000Y-99308590D01*
X198290000Y-98748590D02*
X202727000Y-98748590D01*
X190586000Y-100188590D02*
X203114000Y-100188590D01*
X192136000Y-96868590D02*
X201564000Y-96868590D01*
X198290000Y-97508590D02*
X202066000Y-97508590D01*
X198290000Y-97868590D02*
X202295000Y-97868590D01*
X198290000Y-99668590D02*
X203016000Y-99668590D01*
X198290000Y-98268590D02*
X202512000Y-98268590D01*
X196533000Y-94748590D02*
X197167000Y-94748590D01*
X190684000Y-99668590D02*
X195410000Y-99668590D01*
X191074000Y-98508590D02*
X195410000Y-98508590D01*
X191998000Y-97028590D02*
X201702000Y-97028590D01*
X195267000Y-94948590D02*
X198433000Y-94948590D01*
X190649000Y-99828590D02*
X195410000Y-99828590D01*
X190575000Y-100268590D02*
X203125000Y-100268590D01*
X195428000Y-94908590D02*
X198272000Y-94908590D01*
X198290000Y-99708590D02*
X203025000Y-99708590D01*
X193386000Y-95788590D02*
X200314000Y-95788590D01*
X190522000Y-100949590D02*
X203178000Y-100949590D01*
X198290000Y-99108590D02*
X202858000Y-99108590D01*
X198290000Y-98068590D02*
X202408000Y-98068590D01*
X192361000Y-96628590D02*
X201339000Y-96628590D01*
X192702000Y-96308590D02*
X200998000Y-96308590D01*
X191039000Y-98588590D02*
X195410000Y-98588590D01*
X190598000Y-100108590D02*
X203102000Y-100108590D01*
X191111000Y-98428590D02*
X195410000Y-98428590D01*
X190791000Y-99268590D02*
X195410000Y-99268590D01*
X192172000Y-96828590D02*
X201528000Y-96828590D01*
X190855000Y-99068590D02*
X195410000Y-99068590D01*
X191932000Y-97108590D02*
X201768000Y-97108590D01*
X190989000Y-98708590D02*
X195410000Y-98708590D01*
X198290000Y-99948590D02*
X203074000Y-99948590D01*
X193448000Y-95748590D02*
X200252000Y-95748590D01*
X198290000Y-98348590D02*
X202552000Y-98348590D01*
X192245000Y-96748590D02*
X201455000Y-96748590D01*
X190524000Y-100869590D02*
X203176000Y-100869590D01*
X198290000Y-97388590D02*
X201981000Y-97388590D01*
X192748000Y-96268590D02*
X200952000Y-96268590D01*
X193854000Y-95508590D02*
X199846000Y-95508590D01*
X191528000Y-97668590D02*
X195410000Y-97668590D01*
X191249000Y-98148590D02*
X195410000Y-98148590D01*
X191807000Y-97268590D02*
X195410000Y-97268590D01*
X198290000Y-97828590D02*
X202271000Y-97828590D01*
X198290000Y-97748590D02*
X202222000Y-97748590D01*
X198290000Y-98708590D02*
X202711000Y-98708590D01*
X198290000Y-97628590D02*
X202146000Y-97628590D01*
X191554000Y-97628590D02*
X195410000Y-97628590D01*
X198290000Y-97788590D02*
X202247000Y-97788590D01*
X190675000Y-99708590D02*
X195410000Y-99708590D01*
X190541000Y-100589590D02*
X203159000Y-100589590D01*
X194169000Y-95348590D02*
X199531000Y-95348590D01*
X198290000Y-99388590D02*
X202944000Y-99388590D01*
X195822000Y-94828590D02*
X197878000Y-94828590D01*
X198290000Y-97948590D02*
X202341000Y-97948590D01*
X198290000Y-98548590D02*
X202643000Y-98548590D01*
X191057000Y-98548590D02*
X195410000Y-98548590D01*
X190592000Y-100148590D02*
X203108000Y-100148590D01*
X190520000Y-101109590D02*
X203180000Y-101109590D01*
X198290000Y-99588590D02*
X202996000Y-99588590D01*
X198290000Y-99868590D02*
X203059000Y-99868590D01*
X192322000Y-96668590D02*
X201378000Y-96668590D01*
X190973000Y-98748590D02*
X195410000Y-98748590D01*
X198290000Y-98508590D02*
X202626000Y-98508590D01*
X198290000Y-98428590D02*
X202589000Y-98428590D01*
X198290000Y-99548590D02*
X202987000Y-99548590D01*
X191382000Y-97908590D02*
X195410000Y-97908590D01*
X191838000Y-97228590D02*
X195410000Y-97228590D01*
X190897000Y-98948590D02*
X195410000Y-98948590D01*
X198290000Y-99068590D02*
X202845000Y-99068590D01*
X190520000Y-101029590D02*
X203180000Y-101029590D01*
X198290000Y-98868590D02*
X202774000Y-98868590D01*
X194256000Y-95308590D02*
X199444000Y-95308590D01*
X198290000Y-99228590D02*
X202897000Y-99228590D01*
X192893000Y-96148590D02*
X200807000Y-96148590D01*
X198290000Y-99828590D02*
X203051000Y-99828590D01*
X190803000Y-99228590D02*
X195410000Y-99228590D01*
X191607000Y-97548590D02*
X195410000Y-97548590D01*
X190745000Y-99428590D02*
X195410000Y-99428590D01*
X192568000Y-96428590D02*
X201132000Y-96428590D01*
X191188000Y-98268590D02*
X195410000Y-98268590D01*
X190842000Y-99108590D02*
X195410000Y-99108590D01*
X198290000Y-97668590D02*
X202172000Y-97668590D01*
X190734000Y-99468590D02*
X195410000Y-99468590D01*
X191965000Y-97068590D02*
X201735000Y-97068590D01*
X198290000Y-98308590D02*
X202532000Y-98308590D01*
X198290000Y-98468590D02*
X202608000Y-98468590D01*
X190829000Y-99148590D02*
X195410000Y-99148590D01*
X190957000Y-98788590D02*
X195410000Y-98788590D01*
X198290000Y-97228590D02*
X201862000Y-97228590D01*
X190530000Y-100749590D02*
X203170000Y-100749590D01*
X194641000Y-95148590D02*
X199059000Y-95148590D01*
X190883000Y-98988590D02*
X195410000Y-98988590D01*
X190556000Y-100429590D02*
X203144000Y-100429590D01*
X190666000Y-99748590D02*
X195410000Y-99748590D01*
X192208000Y-96788590D02*
X201492000Y-96788590D01*
X191270000Y-98108590D02*
X195410000Y-98108590D01*
X190626000Y-99948590D02*
X195410000Y-99948590D01*
X198290000Y-98788590D02*
X202743000Y-98788590D01*
X198290000Y-98988590D02*
X202817000Y-98988590D01*
X193326000Y-95828590D02*
X200374000Y-95828590D01*
X192100000Y-96908590D02*
X201600000Y-96908590D01*
X198290000Y-99628590D02*
X203006000Y-99628590D01*
X193100000Y-95988590D02*
X200600000Y-95988590D01*
X190526000Y-100829590D02*
X203174000Y-100829590D01*
X191580000Y-97588590D02*
X195410000Y-97588590D01*
X198290000Y-97708590D02*
X202197000Y-97708590D01*
X192065000Y-96948590D02*
X201635000Y-96948590D01*
X193710000Y-95588590D02*
X199990000Y-95588590D01*
X191719000Y-97388590D02*
X195410000Y-97388590D01*
X198290000Y-97588590D02*
X202120000Y-97588590D01*
X198290000Y-99188590D02*
X202884000Y-99188590D01*
X191634000Y-97508590D02*
X195410000Y-97508590D01*
X190634000Y-99908590D02*
X195410000Y-99908590D01*
X190523000Y-100909590D02*
X203177000Y-100909590D01*
X190521000Y-100989590D02*
X203179000Y-100989590D01*
X198290000Y-99508590D02*
X202976000Y-99508590D01*
X190641000Y-99868590D02*
X195410000Y-99868590D01*
X190694000Y-99628590D02*
X195410000Y-99628590D01*
X192650000Y-107301672D02*
X193900000Y-107301672D01*
X190581000Y-100228590D02*
X203119000Y-100228590D01*
X198290000Y-98188590D02*
X202472000Y-98188590D01*
X193154000Y-95948590D02*
X200546000Y-95948590D01*
X193781000Y-95548590D02*
X199919000Y-95548590D01*
X191336000Y-97988590D02*
X195410000Y-97988590D01*
X194538000Y-95188590D02*
X199162000Y-95188590D01*
X198290000Y-99748590D02*
X203034000Y-99748590D01*
X191868000Y-97188590D02*
X195410000Y-97188590D01*
X198290000Y-97348590D02*
X201952000Y-97348590D01*
X198290000Y-97188590D02*
X201832000Y-97188590D01*
X196093000Y-94788590D02*
X197607000Y-94788590D01*
X198290000Y-99908590D02*
X203066000Y-99908590D01*
X198290000Y-99428590D02*
X202955000Y-99428590D01*
X198290000Y-98908590D02*
X202789000Y-98908590D01*
X192943000Y-96108590D02*
X200757000Y-96108590D01*
X198290000Y-97268590D02*
X201893000Y-97268590D01*
X190713000Y-99548590D02*
X195410000Y-99548590D01*
X194346000Y-95268590D02*
X199354000Y-95268590D01*
X191748000Y-97348590D02*
X195410000Y-97348590D01*
X198290000Y-100028590D02*
X203088000Y-100028590D01*
X190942000Y-98828590D02*
X195410000Y-98828590D01*
X190704000Y-99588590D02*
X195410000Y-99588590D01*
X198290000Y-99348590D02*
X202933000Y-99348590D01*
X191777000Y-97308590D02*
X195410000Y-97308590D01*
X203220000Y-101109590D02*
G75*
G03*
X203220000Y-101109590I-6370000J0D01*
G01*
%TO.C,C4*%
X181095000Y-89048590D02*
X181840000Y-89048590D01*
X181437000Y-88768590D02*
X181840000Y-88768590D01*
X180731000Y-89488590D02*
X181840000Y-89488590D01*
X181016000Y-89128590D02*
X181840000Y-89128590D01*
X180389000Y-90249590D02*
X181840000Y-90249590D01*
X183920000Y-89648590D02*
X185127000Y-89648590D01*
X183920000Y-88728590D02*
X184263000Y-88728590D01*
X183920000Y-88768590D02*
X184323000Y-88768590D01*
X183920000Y-89128590D02*
X184744000Y-89128590D01*
X181326000Y-88848590D02*
X181840000Y-88848590D01*
X181629000Y-88648590D02*
X181840000Y-88648590D01*
X181869000Y-88528590D02*
X183891000Y-88528590D01*
X183920000Y-90128590D02*
X185335000Y-90128590D01*
X180680000Y-89568590D02*
X181840000Y-89568590D01*
X180319000Y-90609590D02*
X181840000Y-90609590D01*
X183920000Y-89248590D02*
X184851000Y-89248590D01*
X183920000Y-89768590D02*
X185190000Y-89768590D01*
X183920000Y-88648590D02*
X184131000Y-88648590D01*
X180705000Y-89528590D02*
X181840000Y-89528590D01*
X180551000Y-89808590D02*
X181840000Y-89808590D01*
X181137000Y-89008590D02*
X181840000Y-89008590D01*
X183920000Y-89008590D02*
X184623000Y-89008590D01*
X183920000Y-89208590D02*
X184817000Y-89208590D01*
X180302000Y-90809590D02*
X185458000Y-90809590D01*
X181561000Y-88688590D02*
X181840000Y-88688590D01*
X180307000Y-90729590D02*
X185453000Y-90729590D01*
X181782000Y-88568590D02*
X183978000Y-88568590D01*
X183920000Y-89048590D02*
X184665000Y-89048590D01*
X180943000Y-89208590D02*
X181840000Y-89208590D01*
X183920000Y-89928590D02*
X185262000Y-89928590D01*
X180337000Y-90489590D02*
X181840000Y-90489590D01*
X180311000Y-90689590D02*
X181840000Y-90689590D01*
X180369000Y-90329590D02*
X181840000Y-90329590D01*
X180876000Y-89288590D02*
X181840000Y-89288590D01*
X183920000Y-89288590D02*
X184884000Y-89288590D01*
X183920000Y-89848590D02*
X185228000Y-89848590D01*
X181405000Y-93734365D02*
X181405000Y-93234365D01*
X180300000Y-90889590D02*
X185460000Y-90889590D01*
X183920000Y-89808590D02*
X185209000Y-89808590D01*
X183920000Y-89448590D02*
X185002000Y-89448590D01*
X183920000Y-88808590D02*
X184380000Y-88808590D01*
X183920000Y-90008590D02*
X185294000Y-90008590D01*
X180412000Y-90168590D02*
X181840000Y-90168590D01*
X180304000Y-90769590D02*
X185456000Y-90769590D01*
X183920000Y-88848590D02*
X184434000Y-88848590D01*
X181380000Y-88808590D02*
X181840000Y-88808590D01*
X182203000Y-88408590D02*
X183557000Y-88408590D01*
X183920000Y-90449590D02*
X185416000Y-90449590D01*
X183920000Y-89568590D02*
X185080000Y-89568590D01*
X180300000Y-90929590D02*
X185460000Y-90929590D01*
X183920000Y-88968590D02*
X184579000Y-88968590D01*
X183920000Y-90168590D02*
X185348000Y-90168590D01*
X182362000Y-88368590D02*
X183398000Y-88368590D01*
X181497000Y-88728590D02*
X181840000Y-88728590D01*
X183920000Y-89408590D02*
X184975000Y-89408590D01*
X180612000Y-89688590D02*
X181840000Y-89688590D01*
X183920000Y-90088590D02*
X185322000Y-90088590D01*
X180379000Y-90289590D02*
X181840000Y-90289590D01*
X183920000Y-89528590D02*
X185055000Y-89528590D01*
X183920000Y-90249590D02*
X185371000Y-90249590D01*
X180845000Y-89328590D02*
X181840000Y-89328590D01*
X180324000Y-90569590D02*
X181840000Y-90569590D01*
X180909000Y-89248590D02*
X181840000Y-89248590D01*
X183920000Y-90409590D02*
X185408000Y-90409590D01*
X180438000Y-90088590D02*
X181840000Y-90088590D01*
X180452000Y-90048590D02*
X181840000Y-90048590D01*
X183920000Y-90609590D02*
X185441000Y-90609590D01*
X181275000Y-88888590D02*
X181840000Y-88888590D01*
X183920000Y-89488590D02*
X185029000Y-89488590D01*
X183920000Y-89608590D02*
X185104000Y-89608590D01*
X183920000Y-90369590D02*
X185400000Y-90369590D01*
X180633000Y-89648590D02*
X181840000Y-89648590D01*
X183920000Y-90289590D02*
X185381000Y-90289590D01*
X183920000Y-89328590D02*
X184915000Y-89328590D01*
X183920000Y-88688590D02*
X184199000Y-88688590D01*
X180482000Y-89968590D02*
X181840000Y-89968590D01*
X183920000Y-90689590D02*
X185449000Y-90689590D01*
X180515000Y-89888590D02*
X181840000Y-89888590D01*
X180570000Y-89768590D02*
X181840000Y-89768590D01*
X180785000Y-89408590D02*
X181840000Y-89408590D01*
X183920000Y-90329590D02*
X185391000Y-90329590D01*
X183920000Y-89368590D02*
X184945000Y-89368590D01*
X183920000Y-89688590D02*
X185148000Y-89688590D01*
X181965000Y-88488590D02*
X183795000Y-88488590D01*
X181181000Y-88968590D02*
X181840000Y-88968590D01*
X180425000Y-90128590D02*
X181840000Y-90128590D01*
X180979000Y-89168590D02*
X181840000Y-89168590D01*
X183920000Y-89728590D02*
X185170000Y-89728590D01*
X182075000Y-88448590D02*
X183685000Y-88448590D01*
X180344000Y-90449590D02*
X181840000Y-90449590D01*
X183920000Y-89968590D02*
X185278000Y-89968590D01*
X180498000Y-89928590D02*
X181840000Y-89928590D01*
X181155000Y-93484365D02*
X181655000Y-93484365D01*
X183920000Y-89088590D02*
X184706000Y-89088590D01*
X180315000Y-90649590D02*
X181840000Y-90649590D01*
X181227000Y-88928590D02*
X181840000Y-88928590D01*
X183920000Y-90569590D02*
X185436000Y-90569590D01*
X180758000Y-89448590D02*
X181840000Y-89448590D01*
X183920000Y-89888590D02*
X185245000Y-89888590D01*
X183920000Y-90208590D02*
X185360000Y-90208590D01*
X180656000Y-89608590D02*
X181840000Y-89608590D01*
X183920000Y-90649590D02*
X185445000Y-90649590D01*
X183920000Y-90489590D02*
X185423000Y-90489590D01*
X181702000Y-88608590D02*
X184058000Y-88608590D01*
X181054000Y-89088590D02*
X181840000Y-89088590D01*
X183920000Y-90529590D02*
X185430000Y-90529590D01*
X183920000Y-90048590D02*
X185308000Y-90048590D01*
X180330000Y-90529590D02*
X181840000Y-90529590D01*
X183920000Y-89168590D02*
X184781000Y-89168590D01*
X180466000Y-90008590D02*
X181840000Y-90008590D01*
X180352000Y-90409590D02*
X181840000Y-90409590D01*
X183920000Y-88888590D02*
X184485000Y-88888590D01*
X180532000Y-89848590D02*
X181840000Y-89848590D01*
X182596000Y-88328590D02*
X183164000Y-88328590D01*
X180400000Y-90208590D02*
X181840000Y-90208590D01*
X183920000Y-88928590D02*
X184533000Y-88928590D01*
X180815000Y-89368590D02*
X181840000Y-89368590D01*
X180590000Y-89728590D02*
X181840000Y-89728590D01*
X180301000Y-90849590D02*
X185459000Y-90849590D01*
X180360000Y-90369590D02*
X181840000Y-90369590D01*
X185500000Y-90929590D02*
G75*
G03*
X185500000Y-90929590I-2620000J0D01*
G01*
%TO.C,C8*%
X184320000Y-97372549D02*
X188150000Y-97372549D01*
X178095000Y-96732549D02*
X187665000Y-96732549D01*
X176764000Y-99252549D02*
X181440000Y-99252549D01*
X184320000Y-97492549D02*
X188227000Y-97492549D01*
X184320000Y-99612549D02*
X189081000Y-99612549D01*
X184320000Y-98772549D02*
X188847000Y-98772549D01*
X180568000Y-94972549D02*
X185192000Y-94972549D01*
X179076000Y-95812549D02*
X186684000Y-95812549D01*
X177141000Y-98212549D02*
X181440000Y-98212549D01*
X181297000Y-94732549D02*
X184463000Y-94732549D01*
X177178000Y-98132549D02*
X181440000Y-98132549D01*
X184320000Y-98492549D02*
X188741000Y-98492549D01*
X177749000Y-97172549D02*
X181440000Y-97172549D01*
X184320000Y-98892549D02*
X188888000Y-98892549D01*
X178166000Y-96652549D02*
X187594000Y-96652549D01*
X176671000Y-99652549D02*
X181440000Y-99652549D01*
X176550000Y-100813549D02*
X189210000Y-100813549D01*
X177279000Y-97932549D02*
X181440000Y-97932549D01*
X179672000Y-95412549D02*
X186088000Y-95412549D01*
X177692000Y-97252549D02*
X181440000Y-97252549D01*
X184320000Y-98932549D02*
X188901000Y-98932549D01*
X184320000Y-97132549D02*
X187982000Y-97132549D01*
X178028000Y-96812549D02*
X187732000Y-96812549D01*
X179240000Y-95692549D02*
X186520000Y-95692549D01*
X177019000Y-98492549D02*
X181440000Y-98492549D01*
X177778000Y-97132549D02*
X181440000Y-97132549D01*
X178555000Y-96252549D02*
X187205000Y-96252549D01*
X177300000Y-97892549D02*
X181440000Y-97892549D01*
X184320000Y-99292549D02*
X189006000Y-99292549D01*
X178680000Y-107085631D02*
X179930000Y-107085631D01*
X184320000Y-97532549D02*
X188252000Y-97532549D01*
X177389000Y-97732549D02*
X181440000Y-97732549D01*
X184320000Y-98372549D02*
X188691000Y-98372549D01*
X177837000Y-97052549D02*
X181440000Y-97052549D01*
X177122000Y-98252549D02*
X181440000Y-98252549D01*
X184320000Y-97892549D02*
X188460000Y-97892549D01*
X179356000Y-95612549D02*
X186404000Y-95612549D01*
X179024000Y-95852549D02*
X186736000Y-95852549D01*
X177637000Y-97332549D02*
X181440000Y-97332549D01*
X177344000Y-97812549D02*
X181440000Y-97812549D01*
X176987000Y-98572549D02*
X181440000Y-98572549D01*
X177483000Y-97572549D02*
X181440000Y-97572549D01*
X184320000Y-99572549D02*
X189072000Y-99572549D01*
X184320000Y-99172549D02*
X188974000Y-99172549D01*
X180671000Y-94932549D02*
X185089000Y-94932549D01*
X176550000Y-100853549D02*
X189210000Y-100853549D01*
X184320000Y-98052549D02*
X188542000Y-98052549D01*
X184320000Y-98332549D02*
X188673000Y-98332549D01*
X184320000Y-98972549D02*
X188914000Y-98972549D01*
X184320000Y-97052549D02*
X187923000Y-97052549D01*
X182123000Y-94572549D02*
X183637000Y-94572549D01*
X176679000Y-99612549D02*
X181440000Y-99612549D01*
X176550000Y-100893549D02*
X189210000Y-100893549D01*
X177962000Y-96892549D02*
X187798000Y-96892549D01*
X184320000Y-97732549D02*
X188371000Y-97732549D01*
X179297000Y-95652549D02*
X186463000Y-95652549D01*
X181639000Y-94652549D02*
X184121000Y-94652549D01*
X176595000Y-100132549D02*
X189165000Y-100132549D01*
X176743000Y-99332549D02*
X181440000Y-99332549D01*
X176586000Y-100213549D02*
X189174000Y-100213549D01*
X176656000Y-99732549D02*
X181440000Y-99732549D01*
X179605000Y-95452549D02*
X186155000Y-95452549D01*
X184320000Y-98612549D02*
X188788000Y-98612549D01*
X184320000Y-97692549D02*
X188348000Y-97692549D01*
X184320000Y-98252549D02*
X188638000Y-98252549D01*
X184320000Y-98532549D02*
X188757000Y-98532549D01*
X184320000Y-99092549D02*
X188951000Y-99092549D01*
X184320000Y-97812549D02*
X188416000Y-97812549D01*
X177459000Y-97612549D02*
X181440000Y-97612549D01*
X184320000Y-97212549D02*
X188040000Y-97212549D01*
X178472000Y-96332549D02*
X187288000Y-96332549D01*
X177218000Y-98052549D02*
X181440000Y-98052549D01*
X184320000Y-98652549D02*
X188804000Y-98652549D01*
X181852000Y-94612549D02*
X183908000Y-94612549D01*
X176885000Y-98852549D02*
X181440000Y-98852549D01*
X184320000Y-98412549D02*
X188708000Y-98412549D01*
X178431000Y-96372549D02*
X187329000Y-96372549D01*
X176972000Y-98612549D02*
X181440000Y-98612549D01*
X184320000Y-97412549D02*
X188176000Y-97412549D01*
X184320000Y-98212549D02*
X188619000Y-98212549D01*
X176611000Y-100012549D02*
X189149000Y-100012549D01*
X176554000Y-100653549D02*
X189206000Y-100653549D01*
X178686000Y-96132549D02*
X187074000Y-96132549D01*
X176859000Y-98932549D02*
X181440000Y-98932549D01*
X184320000Y-98132549D02*
X188582000Y-98132549D01*
X176754000Y-99292549D02*
X181440000Y-99292549D01*
X184320000Y-98292549D02*
X188656000Y-98292549D01*
X176696000Y-99532549D02*
X181440000Y-99532549D01*
X184320000Y-97652549D02*
X188325000Y-97652549D01*
X176956000Y-98652549D02*
X181440000Y-98652549D01*
X176833000Y-99012549D02*
X181440000Y-99012549D01*
X177720000Y-97212549D02*
X181440000Y-97212549D01*
X184320000Y-99812549D02*
X189118000Y-99812549D01*
X177898000Y-96972549D02*
X181440000Y-96972549D01*
X178313000Y-96492549D02*
X187447000Y-96492549D01*
X178973000Y-95892549D02*
X186787000Y-95892549D01*
X184320000Y-99452549D02*
X189046000Y-99452549D01*
X184320000Y-99692549D02*
X189096000Y-99692549D01*
X178513000Y-96292549D02*
X187247000Y-96292549D01*
X184320000Y-96972549D02*
X187862000Y-96972549D01*
X184320000Y-97172549D02*
X188011000Y-97172549D01*
X184320000Y-98572549D02*
X188773000Y-98572549D01*
X178130000Y-96692549D02*
X187630000Y-96692549D01*
X177412000Y-97692549D02*
X181440000Y-97692549D01*
X176705000Y-99492549D02*
X181440000Y-99492549D01*
X184320000Y-99252549D02*
X188996000Y-99252549D01*
X184320000Y-99212549D02*
X188985000Y-99212549D01*
X181019000Y-94812549D02*
X184741000Y-94812549D01*
X177198000Y-98092549D02*
X181440000Y-98092549D01*
X179305000Y-107710631D02*
X179305000Y-106460631D01*
X180470000Y-95012549D02*
X185290000Y-95012549D01*
X176556000Y-100613549D02*
X189204000Y-100613549D01*
X177003000Y-98532549D02*
X181440000Y-98532549D01*
X179740000Y-95372549D02*
X186020000Y-95372549D01*
X184320000Y-99412549D02*
X189036000Y-99412549D01*
X176734000Y-99372549D02*
X181440000Y-99372549D01*
X176688000Y-99572549D02*
X181440000Y-99572549D01*
X184320000Y-97292549D02*
X188096000Y-97292549D01*
X176714000Y-99452549D02*
X181440000Y-99452549D01*
X176552000Y-100733549D02*
X189208000Y-100733549D01*
X184320000Y-99772549D02*
X189111000Y-99772549D01*
X184320000Y-97252549D02*
X188068000Y-97252549D01*
X176562000Y-100493549D02*
X189198000Y-100493549D01*
X184320000Y-97772549D02*
X188394000Y-97772549D01*
X177610000Y-97372549D02*
X181440000Y-97372549D01*
X176786000Y-99172549D02*
X181440000Y-99172549D01*
X176664000Y-99692549D02*
X181440000Y-99692549D01*
X179130000Y-95772549D02*
X186630000Y-95772549D01*
X176582000Y-100253549D02*
X189178000Y-100253549D01*
X184320000Y-97612549D02*
X188301000Y-97612549D01*
X177435000Y-97652549D02*
X181440000Y-97652549D01*
X177558000Y-97452549D02*
X181440000Y-97452549D01*
X179184000Y-95732549D02*
X186576000Y-95732549D01*
X184320000Y-98852549D02*
X188875000Y-98852549D01*
X176605000Y-100052549D02*
X189155000Y-100052549D01*
X184320000Y-99732549D02*
X189104000Y-99732549D01*
X176635000Y-99852549D02*
X189125000Y-99852549D01*
X184320000Y-99492549D02*
X189055000Y-99492549D01*
X177533000Y-97492549D02*
X181440000Y-97492549D01*
X177258000Y-97972549D02*
X181440000Y-97972549D01*
X176846000Y-98972549D02*
X181440000Y-98972549D01*
X184320000Y-97092549D02*
X187953000Y-97092549D01*
X176600000Y-100092549D02*
X189160000Y-100092549D01*
X176622000Y-99932549D02*
X189138000Y-99932549D01*
X178923000Y-95932549D02*
X186837000Y-95932549D01*
X184320000Y-99332549D02*
X189017000Y-99332549D01*
X176616000Y-99972549D02*
X189144000Y-99972549D01*
X184320000Y-97452549D02*
X188202000Y-97452549D01*
X176568000Y-100413549D02*
X189192000Y-100413549D01*
X179541000Y-95492549D02*
X186219000Y-95492549D01*
X184320000Y-99532549D02*
X189064000Y-99532549D01*
X184320000Y-98452549D02*
X188725000Y-98452549D01*
X177035000Y-98452549D02*
X181440000Y-98452549D01*
X177159000Y-98172549D02*
X181440000Y-98172549D01*
X179416000Y-95572549D02*
X186344000Y-95572549D01*
X180036000Y-95212549D02*
X185724000Y-95212549D01*
X178778000Y-96052549D02*
X186982000Y-96052549D01*
X177930000Y-96932549D02*
X187830000Y-96932549D01*
X176558000Y-100573549D02*
X189202000Y-100573549D01*
X180780000Y-94892549D02*
X184980000Y-94892549D01*
X177069000Y-98372549D02*
X181440000Y-98372549D01*
X178238000Y-96572549D02*
X187522000Y-96572549D01*
X180116000Y-95172549D02*
X185644000Y-95172549D01*
X184320000Y-97572549D02*
X188277000Y-97572549D01*
X184320000Y-97932549D02*
X188481000Y-97932549D01*
X184320000Y-99652549D02*
X189089000Y-99652549D01*
X176560000Y-100533549D02*
X189200000Y-100533549D01*
X176578000Y-100293549D02*
X189182000Y-100293549D01*
X176571000Y-100373549D02*
X189189000Y-100373549D01*
X176574000Y-100333549D02*
X189186000Y-100333549D01*
X177664000Y-97292549D02*
X181440000Y-97292549D01*
X176775000Y-99212549D02*
X181440000Y-99212549D01*
X184320000Y-97332549D02*
X188123000Y-97332549D01*
X176797000Y-99132549D02*
X181440000Y-99132549D01*
X179811000Y-95332549D02*
X185949000Y-95332549D01*
X180376000Y-95052549D02*
X185384000Y-95052549D01*
X176628000Y-99892549D02*
X189132000Y-99892549D01*
X184320000Y-99052549D02*
X188939000Y-99052549D01*
X184320000Y-97972549D02*
X188502000Y-97972549D01*
X176927000Y-98732549D02*
X181440000Y-98732549D01*
X178202000Y-96612549D02*
X187558000Y-96612549D01*
X184320000Y-98092549D02*
X188562000Y-98092549D01*
X181152000Y-94772549D02*
X184608000Y-94772549D01*
X177104000Y-98292549D02*
X181440000Y-98292549D01*
X176553000Y-100693549D02*
X189207000Y-100693549D01*
X184320000Y-98732549D02*
X188833000Y-98732549D01*
X184320000Y-98812549D02*
X188861000Y-98812549D01*
X177868000Y-97012549D02*
X181440000Y-97012549D01*
X182563000Y-94532549D02*
X183197000Y-94532549D01*
X178732000Y-96092549D02*
X187028000Y-96092549D01*
X178061000Y-96772549D02*
X187699000Y-96772549D01*
X184320000Y-99372549D02*
X189026000Y-99372549D01*
X176551000Y-100773549D02*
X189209000Y-100773549D01*
X177322000Y-97852549D02*
X181440000Y-97852549D01*
X178873000Y-95972549D02*
X186887000Y-95972549D01*
X177238000Y-98012549D02*
X181440000Y-98012549D01*
X178642000Y-96172549D02*
X187118000Y-96172549D01*
X176724000Y-99412549D02*
X181440000Y-99412549D01*
X184320000Y-99012549D02*
X188927000Y-99012549D01*
X180896000Y-94852549D02*
X184864000Y-94852549D01*
X176821000Y-99052549D02*
X181440000Y-99052549D01*
X176913000Y-98772549D02*
X181440000Y-98772549D01*
X179884000Y-95292549D02*
X185876000Y-95292549D01*
X181458000Y-94692549D02*
X184302000Y-94692549D01*
X178825000Y-96012549D02*
X186935000Y-96012549D01*
X179478000Y-95532549D02*
X186282000Y-95532549D01*
X180286000Y-95092549D02*
X185474000Y-95092549D01*
X176809000Y-99092549D02*
X181440000Y-99092549D01*
X178391000Y-96412549D02*
X187369000Y-96412549D01*
X177087000Y-98332549D02*
X181440000Y-98332549D01*
X177052000Y-98412549D02*
X181440000Y-98412549D01*
X176941000Y-98692549D02*
X181440000Y-98692549D01*
X178275000Y-96532549D02*
X187485000Y-96532549D01*
X176642000Y-99812549D02*
X181440000Y-99812549D01*
X176872000Y-98892549D02*
X181440000Y-98892549D01*
X178352000Y-96452549D02*
X187408000Y-96452549D01*
X184320000Y-98692549D02*
X188819000Y-98692549D01*
X177807000Y-97092549D02*
X181440000Y-97092549D01*
X178598000Y-96212549D02*
X187162000Y-96212549D01*
X184320000Y-98172549D02*
X188601000Y-98172549D01*
X177366000Y-97772549D02*
X181440000Y-97772549D01*
X184320000Y-97852549D02*
X188438000Y-97852549D01*
X180199000Y-95132549D02*
X185561000Y-95132549D01*
X176899000Y-98812549D02*
X181440000Y-98812549D01*
X179959000Y-95252549D02*
X185801000Y-95252549D01*
X176590000Y-100172549D02*
X189170000Y-100172549D01*
X176649000Y-99772549D02*
X181440000Y-99772549D01*
X176565000Y-100453549D02*
X189195000Y-100453549D01*
X184320000Y-97012549D02*
X187892000Y-97012549D01*
X177995000Y-96852549D02*
X187765000Y-96852549D01*
X184320000Y-98012549D02*
X188522000Y-98012549D01*
X177508000Y-97532549D02*
X181440000Y-97532549D01*
X184320000Y-99132549D02*
X188963000Y-99132549D01*
X177584000Y-97412549D02*
X181440000Y-97412549D01*
X189250000Y-100893549D02*
G75*
G03*
X189250000Y-100893549I-6370000J0D01*
G01*
%TO.C,R11*%
X208640000Y-70672936D02*
X208640000Y-72127064D01*
X210460000Y-70672936D02*
X210460000Y-72127064D01*
%TO.C,C3*%
X187730000Y-84248590D02*
X188725000Y-84248590D01*
X184380000Y-84688590D02*
X185650000Y-84688590D01*
X184568000Y-84368590D02*
X185650000Y-84368590D01*
X187730000Y-85249590D02*
X189201000Y-85249590D01*
X184947000Y-83928590D02*
X185650000Y-83928590D01*
X187730000Y-84288590D02*
X188755000Y-84288590D01*
X185215000Y-88654365D02*
X185215000Y-88154365D01*
X187730000Y-84768590D02*
X189038000Y-84768590D01*
X184490000Y-84488590D02*
X185650000Y-84488590D01*
X187730000Y-83968590D02*
X188475000Y-83968590D01*
X187730000Y-85369590D02*
X189226000Y-85369590D01*
X184625000Y-84288590D02*
X185650000Y-84288590D01*
X187730000Y-84648590D02*
X188980000Y-84648590D01*
X184422000Y-84608590D02*
X185650000Y-84608590D01*
X187730000Y-83608590D02*
X188009000Y-83608590D01*
X185037000Y-83848590D02*
X185650000Y-83848590D01*
X187730000Y-83648590D02*
X188073000Y-83648590D01*
X184905000Y-83968590D02*
X185650000Y-83968590D01*
X187730000Y-84568590D02*
X188937000Y-84568590D01*
X184222000Y-85088590D02*
X185650000Y-85088590D01*
X186172000Y-83288590D02*
X187208000Y-83288590D01*
X184235000Y-85048590D02*
X185650000Y-85048590D01*
X184134000Y-85489590D02*
X185650000Y-85489590D01*
X184110000Y-85809590D02*
X189270000Y-85809590D01*
X187730000Y-85128590D02*
X189170000Y-85128590D01*
X187730000Y-83928590D02*
X188433000Y-83928590D01*
X184248000Y-85008590D02*
X185650000Y-85008590D01*
X187730000Y-85209590D02*
X189191000Y-85209590D01*
X184179000Y-85249590D02*
X185650000Y-85249590D01*
X184292000Y-84888590D02*
X185650000Y-84888590D01*
X185512000Y-83528590D02*
X187868000Y-83528590D01*
X184162000Y-85329590D02*
X185650000Y-85329590D01*
X187730000Y-84888590D02*
X189088000Y-84888590D01*
X187730000Y-84328590D02*
X188785000Y-84328590D01*
X187730000Y-84608590D02*
X188958000Y-84608590D01*
X184276000Y-84928590D02*
X185650000Y-84928590D01*
X184111000Y-85769590D02*
X189269000Y-85769590D01*
X184262000Y-84968590D02*
X185650000Y-84968590D01*
X187730000Y-85529590D02*
X189251000Y-85529590D01*
X184826000Y-84048590D02*
X185650000Y-84048590D01*
X187730000Y-84848590D02*
X189072000Y-84848590D01*
X185439000Y-83568590D02*
X185650000Y-83568590D01*
X184655000Y-84248590D02*
X185650000Y-84248590D01*
X187730000Y-85449590D02*
X189240000Y-85449590D01*
X187730000Y-85489590D02*
X189246000Y-85489590D01*
X187730000Y-85289590D02*
X189210000Y-85289590D01*
X184753000Y-84128590D02*
X185650000Y-84128590D01*
X184991000Y-83888590D02*
X185650000Y-83888590D01*
X185775000Y-83408590D02*
X187605000Y-83408590D01*
X186406000Y-83248590D02*
X186974000Y-83248590D01*
X184400000Y-84648590D02*
X185650000Y-84648590D01*
X187730000Y-85088590D02*
X189158000Y-85088590D01*
X187730000Y-85569590D02*
X189255000Y-85569590D01*
X187730000Y-84128590D02*
X188627000Y-84128590D01*
X185247000Y-83688590D02*
X185650000Y-83688590D01*
X187730000Y-84368590D02*
X188812000Y-84368590D01*
X187730000Y-83888590D02*
X188389000Y-83888590D01*
X184121000Y-85609590D02*
X185650000Y-85609590D01*
X185307000Y-83648590D02*
X185650000Y-83648590D01*
X187730000Y-84208590D02*
X188694000Y-84208590D01*
X184154000Y-85369590D02*
X185650000Y-85369590D01*
X187730000Y-85048590D02*
X189145000Y-85048590D01*
X185085000Y-83808590D02*
X185650000Y-83808590D01*
X187730000Y-84808590D02*
X189055000Y-84808590D01*
X187730000Y-84968590D02*
X189118000Y-84968590D01*
X184361000Y-84728590D02*
X185650000Y-84728590D01*
X184595000Y-84328590D02*
X185650000Y-84328590D01*
X187730000Y-85329590D02*
X189218000Y-85329590D01*
X187730000Y-84488590D02*
X188890000Y-84488590D01*
X185371000Y-83608590D02*
X185650000Y-83608590D01*
X184129000Y-85529590D02*
X185650000Y-85529590D01*
X187730000Y-84928590D02*
X189104000Y-84928590D01*
X184112000Y-85729590D02*
X189268000Y-85729590D01*
X184325000Y-84808590D02*
X185650000Y-84808590D01*
X187730000Y-84168590D02*
X188661000Y-84168590D01*
X184140000Y-85449590D02*
X185650000Y-85449590D01*
X184342000Y-84768590D02*
X185650000Y-84768590D01*
X184114000Y-85689590D02*
X189266000Y-85689590D01*
X184189000Y-85209590D02*
X185650000Y-85209590D01*
X184443000Y-84568590D02*
X185650000Y-84568590D01*
X184199000Y-85169590D02*
X185650000Y-85169590D01*
X184789000Y-84088590D02*
X185650000Y-84088590D01*
X187730000Y-83768590D02*
X188244000Y-83768590D01*
X187730000Y-84728590D02*
X189019000Y-84728590D01*
X187730000Y-84528590D02*
X188914000Y-84528590D01*
X184719000Y-84168590D02*
X185650000Y-84168590D01*
X184864000Y-84008590D02*
X185650000Y-84008590D01*
X187730000Y-84008590D02*
X188516000Y-84008590D01*
X187730000Y-85008590D02*
X189132000Y-85008590D01*
X184147000Y-85409590D02*
X185650000Y-85409590D01*
X184466000Y-84528590D02*
X185650000Y-84528590D01*
X187730000Y-84048590D02*
X188554000Y-84048590D01*
X187730000Y-83688590D02*
X188133000Y-83688590D01*
X187730000Y-84088590D02*
X188591000Y-84088590D01*
X184686000Y-84208590D02*
X185650000Y-84208590D01*
X187730000Y-85169590D02*
X189181000Y-85169590D01*
X185190000Y-83728590D02*
X185650000Y-83728590D01*
X187730000Y-84448590D02*
X188865000Y-84448590D01*
X184210000Y-85128590D02*
X185650000Y-85128590D01*
X184965000Y-88404365D02*
X185465000Y-88404365D01*
X184110000Y-85849590D02*
X189270000Y-85849590D01*
X187730000Y-83568590D02*
X187941000Y-83568590D01*
X187730000Y-83728590D02*
X188190000Y-83728590D01*
X184515000Y-84448590D02*
X185650000Y-84448590D01*
X184541000Y-84408590D02*
X185650000Y-84408590D01*
X187730000Y-85609590D02*
X189259000Y-85609590D01*
X187730000Y-85409590D02*
X189233000Y-85409590D01*
X185592000Y-83488590D02*
X187788000Y-83488590D01*
X185679000Y-83448590D02*
X187701000Y-83448590D01*
X186013000Y-83328590D02*
X187367000Y-83328590D01*
X187730000Y-83808590D02*
X188295000Y-83808590D01*
X184308000Y-84848590D02*
X185650000Y-84848590D01*
X187730000Y-84408590D02*
X188839000Y-84408590D01*
X187730000Y-83848590D02*
X188343000Y-83848590D01*
X184125000Y-85569590D02*
X185650000Y-85569590D01*
X184117000Y-85649590D02*
X189263000Y-85649590D01*
X185136000Y-83768590D02*
X185650000Y-83768590D01*
X185885000Y-83368590D02*
X187495000Y-83368590D01*
X184170000Y-85289590D02*
X185650000Y-85289590D01*
X187730000Y-84688590D02*
X189000000Y-84688590D01*
X189310000Y-85849590D02*
G75*
G03*
X189310000Y-85849590I-2620000J0D01*
G01*
%TO.C,C13*%
X193826000Y-87010000D02*
X195287000Y-87010000D01*
X190586000Y-86289000D02*
X191746000Y-86289000D01*
X193826000Y-85569000D02*
X194340000Y-85569000D01*
X190250000Y-87170000D02*
X191746000Y-87170000D01*
X191043000Y-85729000D02*
X191746000Y-85729000D01*
X190562000Y-86329000D02*
X191746000Y-86329000D01*
X190691000Y-86129000D02*
X191746000Y-86129000D01*
X193826000Y-86249000D02*
X194961000Y-86249000D01*
X193826000Y-87290000D02*
X195342000Y-87290000D01*
X190217000Y-87410000D02*
X191746000Y-87410000D01*
X190236000Y-87250000D02*
X191746000Y-87250000D01*
X193826000Y-85849000D02*
X194650000Y-85849000D01*
X193826000Y-86289000D02*
X194986000Y-86289000D01*
X190208000Y-87530000D02*
X195364000Y-87530000D01*
X192109000Y-85129000D02*
X193463000Y-85129000D01*
X193826000Y-85929000D02*
X194723000Y-85929000D01*
X190421000Y-86609000D02*
X191746000Y-86609000D01*
X190207000Y-87570000D02*
X195365000Y-87570000D01*
X193826000Y-86849000D02*
X195241000Y-86849000D01*
X190344000Y-86809000D02*
X191746000Y-86809000D01*
X191087000Y-85689000D02*
X191746000Y-85689000D01*
X190213000Y-87450000D02*
X195359000Y-87450000D01*
X193826000Y-85449000D02*
X194169000Y-85449000D01*
X193826000Y-86889000D02*
X195254000Y-86889000D01*
X190637000Y-86209000D02*
X191746000Y-86209000D01*
X190922000Y-85849000D02*
X191746000Y-85849000D01*
X193826000Y-86369000D02*
X195033000Y-86369000D01*
X193826000Y-85529000D02*
X194286000Y-85529000D01*
X193826000Y-86409000D02*
X195054000Y-86409000D01*
X193826000Y-86329000D02*
X195010000Y-86329000D01*
X190266000Y-87090000D02*
X191746000Y-87090000D01*
X193826000Y-86009000D02*
X194790000Y-86009000D01*
X193826000Y-86689000D02*
X195184000Y-86689000D01*
X191608000Y-85329000D02*
X193964000Y-85329000D01*
X193826000Y-85489000D02*
X194229000Y-85489000D01*
X191286000Y-85529000D02*
X191746000Y-85529000D01*
X193826000Y-86649000D02*
X195168000Y-86649000D01*
X193826000Y-85409000D02*
X194105000Y-85409000D01*
X190206000Y-87650000D02*
X195366000Y-87650000D01*
X191775000Y-85249000D02*
X193797000Y-85249000D01*
X193826000Y-86489000D02*
X195096000Y-86489000D01*
X190306000Y-86929000D02*
X191746000Y-86929000D01*
X193826000Y-86809000D02*
X195228000Y-86809000D01*
X191535000Y-85369000D02*
X191746000Y-85369000D01*
X193826000Y-86449000D02*
X195076000Y-86449000D01*
X193826000Y-87330000D02*
X195347000Y-87330000D01*
X193826000Y-87050000D02*
X195297000Y-87050000D01*
X190258000Y-87130000D02*
X191746000Y-87130000D01*
X191981000Y-85169000D02*
X193591000Y-85169000D01*
X190438000Y-86569000D02*
X191746000Y-86569000D01*
X193826000Y-86049000D02*
X194821000Y-86049000D01*
X191403000Y-85449000D02*
X191746000Y-85449000D01*
X190885000Y-85889000D02*
X191746000Y-85889000D01*
X191133000Y-85649000D02*
X191746000Y-85649000D01*
X190457000Y-86529000D02*
X191746000Y-86529000D01*
X193826000Y-85649000D02*
X194439000Y-85649000D01*
X190476000Y-86489000D02*
X191746000Y-86489000D01*
X193826000Y-86929000D02*
X195266000Y-86929000D01*
X193826000Y-85969000D02*
X194757000Y-85969000D01*
X190539000Y-86369000D02*
X191746000Y-86369000D01*
X193826000Y-87410000D02*
X195355000Y-87410000D01*
X191343000Y-85489000D02*
X191746000Y-85489000D01*
X190611000Y-86249000D02*
X191746000Y-86249000D01*
X192268000Y-85089000D02*
X193304000Y-85089000D01*
X193826000Y-85769000D02*
X194571000Y-85769000D01*
X193826000Y-86970000D02*
X195277000Y-86970000D01*
X190243000Y-87210000D02*
X191746000Y-87210000D01*
X193826000Y-87090000D02*
X195306000Y-87090000D01*
X191001000Y-85769000D02*
X191746000Y-85769000D01*
X190664000Y-86169000D02*
X191746000Y-86169000D01*
X190206000Y-87610000D02*
X195366000Y-87610000D01*
X193826000Y-85689000D02*
X194485000Y-85689000D01*
X190210000Y-87490000D02*
X195362000Y-87490000D01*
X190318000Y-86889000D02*
X191746000Y-86889000D01*
X193826000Y-86169000D02*
X194908000Y-86169000D01*
X190751000Y-86049000D02*
X191746000Y-86049000D01*
X193826000Y-87210000D02*
X195329000Y-87210000D01*
X190960000Y-85809000D02*
X191746000Y-85809000D01*
X193826000Y-85729000D02*
X194529000Y-85729000D01*
X193826000Y-85369000D02*
X194037000Y-85369000D01*
X193826000Y-87370000D02*
X195351000Y-87370000D01*
X190285000Y-87010000D02*
X191746000Y-87010000D01*
X193826000Y-87170000D02*
X195322000Y-87170000D01*
X190721000Y-86089000D02*
X191746000Y-86089000D01*
X193826000Y-86729000D02*
X195200000Y-86729000D01*
X193826000Y-85809000D02*
X194612000Y-85809000D01*
X190372000Y-86729000D02*
X191746000Y-86729000D01*
X193826000Y-86609000D02*
X195151000Y-86609000D01*
X191311000Y-90454775D02*
X191311000Y-89954775D01*
X192502000Y-85049000D02*
X193070000Y-85049000D01*
X190782000Y-86009000D02*
X191746000Y-86009000D01*
X190358000Y-86769000D02*
X191746000Y-86769000D01*
X190221000Y-87370000D02*
X191746000Y-87370000D01*
X193826000Y-85609000D02*
X194391000Y-85609000D01*
X193826000Y-87130000D02*
X195314000Y-87130000D01*
X190518000Y-86409000D02*
X191746000Y-86409000D01*
X193826000Y-86209000D02*
X194935000Y-86209000D01*
X191467000Y-85409000D02*
X191746000Y-85409000D01*
X193826000Y-86089000D02*
X194851000Y-86089000D01*
X193826000Y-85889000D02*
X194687000Y-85889000D01*
X190404000Y-86649000D02*
X191746000Y-86649000D01*
X191181000Y-85609000D02*
X191746000Y-85609000D01*
X190849000Y-85929000D02*
X191746000Y-85929000D01*
X190230000Y-87290000D02*
X191746000Y-87290000D01*
X190225000Y-87330000D02*
X191746000Y-87330000D01*
X190496000Y-86449000D02*
X191746000Y-86449000D01*
X191232000Y-85569000D02*
X191746000Y-85569000D01*
X193826000Y-86769000D02*
X195214000Y-86769000D01*
X190295000Y-86970000D02*
X191746000Y-86970000D01*
X191871000Y-85209000D02*
X193701000Y-85209000D01*
X190275000Y-87050000D02*
X191746000Y-87050000D01*
X190815000Y-85969000D02*
X191746000Y-85969000D01*
X193826000Y-87250000D02*
X195336000Y-87250000D01*
X190331000Y-86849000D02*
X191746000Y-86849000D01*
X191688000Y-85289000D02*
X193884000Y-85289000D01*
X190388000Y-86689000D02*
X191746000Y-86689000D01*
X193826000Y-86529000D02*
X195115000Y-86529000D01*
X191061000Y-90204775D02*
X191561000Y-90204775D01*
X193826000Y-86129000D02*
X194881000Y-86129000D01*
X193826000Y-86569000D02*
X195134000Y-86569000D01*
X195406000Y-87650000D02*
G75*
G03*
X195406000Y-87650000I-2620000J0D01*
G01*
%TO.C,D5*%
X193120000Y-77335000D02*
X197180000Y-77335000D01*
X197180000Y-75065000D02*
X193120000Y-75065000D01*
X193120000Y-75065000D02*
X193120000Y-77335000D01*
%TO.C,SW1*%
X205708333Y-86868000D02*
X205708333Y-85598000D01*
X206915000Y-88808000D02*
X205708333Y-88808000D01*
X206915000Y-89168000D02*
X205708333Y-89168000D01*
X203295000Y-86868000D02*
X206915000Y-86868000D01*
X206915000Y-83058000D02*
X203295000Y-83058000D01*
X206915000Y-85668000D02*
X205708333Y-85668000D01*
X206915000Y-86148000D02*
X205708333Y-86148000D01*
X206915000Y-84328000D02*
X206915000Y-83058000D01*
X206915000Y-86868000D02*
X206915000Y-85598000D01*
X206915000Y-86628000D02*
X205708333Y-86628000D01*
X206915000Y-89408000D02*
X206915000Y-88138000D01*
X208515000Y-85243000D02*
X208515000Y-84682000D01*
X206915000Y-83848000D02*
X205708333Y-83848000D01*
X206915000Y-89048000D02*
X205708333Y-89048000D01*
X206915000Y-83608000D02*
X205708333Y-83608000D01*
X206915000Y-85908000D02*
X205708333Y-85908000D01*
X208515000Y-90883000D02*
X201694000Y-90883000D01*
X205708333Y-89408000D02*
X205708333Y-88138000D01*
X203295000Y-89408000D02*
X206915000Y-89408000D01*
X206915000Y-89288000D02*
X205708333Y-89288000D01*
X206915000Y-88138000D02*
X203295000Y-88138000D01*
X201694000Y-85243000D02*
X201694000Y-84682000D01*
X208515000Y-90883000D02*
X208515000Y-89813000D01*
X206915000Y-88208000D02*
X205708333Y-88208000D01*
X208515000Y-81583000D02*
X201694000Y-81583000D01*
X206915000Y-83728000D02*
X205708333Y-83728000D01*
X201694000Y-87783000D02*
X201694000Y-87222000D01*
X206915000Y-85598000D02*
X203295000Y-85598000D01*
X205708333Y-84328000D02*
X205708333Y-83058000D01*
X206915000Y-88568000D02*
X205708333Y-88568000D01*
X206915000Y-83248000D02*
X205708333Y-83248000D01*
X206915000Y-88928000D02*
X205708333Y-88928000D01*
X206915000Y-88328000D02*
X205708333Y-88328000D01*
X208515000Y-82703000D02*
X208515000Y-81583000D01*
X208755000Y-91123000D02*
X208755000Y-89813000D01*
X206915000Y-88688000D02*
X205708333Y-88688000D01*
X203295000Y-85598000D02*
X203295000Y-86868000D01*
X206915000Y-84208000D02*
X205708333Y-84208000D01*
X206915000Y-83368000D02*
X205708333Y-83368000D01*
X201694000Y-82703000D02*
X201694000Y-81583000D01*
X208755000Y-91123000D02*
X207372000Y-91123000D01*
X206915000Y-86268000D02*
X205708333Y-86268000D01*
X203295000Y-83058000D02*
X203295000Y-84328000D01*
X206915000Y-86748000D02*
X205708333Y-86748000D01*
X201694000Y-90883000D02*
X201694000Y-89763000D01*
X206915000Y-84088000D02*
X205708333Y-84088000D01*
X206915000Y-86028000D02*
X205708333Y-86028000D01*
X203295000Y-84328000D02*
X206915000Y-84328000D01*
X206915000Y-83968000D02*
X205708333Y-83968000D01*
X206915000Y-86508000D02*
X205708333Y-86508000D01*
X206915000Y-83488000D02*
X205708333Y-83488000D01*
X206915000Y-85788000D02*
X205708333Y-85788000D01*
X208515000Y-87733000D02*
X208515000Y-87222000D01*
X203295000Y-88138000D02*
X203295000Y-89408000D01*
X206915000Y-83128000D02*
X205708333Y-83128000D01*
X206915000Y-88448000D02*
X205708333Y-88448000D01*
X206915000Y-86388000D02*
X205708333Y-86388000D01*
%TO.C,C7*%
X208640000Y-66751252D02*
X208640000Y-65328748D01*
X210460000Y-66751252D02*
X210460000Y-65328748D01*
%TO.C,RST*%
X217376000Y-64135000D02*
G75*
G03*
X217376000Y-64135000I-3000000J0D01*
G01*
%TO.C,D6*%
X188160000Y-65610000D02*
X185220000Y-65610000D01*
X188160000Y-65370000D02*
X185220000Y-65370000D01*
X185350000Y-64590000D02*
X185220000Y-64590000D01*
X185220000Y-70030000D02*
X185350000Y-70030000D01*
X185220000Y-64590000D02*
X185220000Y-70030000D01*
X188160000Y-70030000D02*
X188030000Y-70030000D01*
X188030000Y-64590000D02*
X188160000Y-64590000D01*
X188160000Y-64590000D02*
X188160000Y-70030000D01*
X188160000Y-65490000D02*
X185220000Y-65490000D01*
%TO.C,R4*%
X199932936Y-74570000D02*
X201387064Y-74570000D01*
X199932936Y-72750000D02*
X201387064Y-72750000D01*
%TO.C,C5*%
X208466000Y-91993959D02*
X212666000Y-91993959D01*
X209809000Y-91673959D02*
X211323000Y-91673959D01*
X205888000Y-93713959D02*
X215244000Y-93713959D01*
X206511000Y-93113959D02*
X214621000Y-93113959D01*
X204599000Y-95873959D02*
X209126000Y-95873959D01*
X204827000Y-95313959D02*
X209126000Y-95313959D01*
X205961000Y-93633959D02*
X215171000Y-93633959D01*
X204382000Y-96633959D02*
X209126000Y-96633959D01*
X204904000Y-95153959D02*
X209126000Y-95153959D01*
X212006000Y-96673959D02*
X216758000Y-96673959D01*
X204314000Y-96993959D02*
X216818000Y-96993959D01*
X208838000Y-91873959D02*
X212294000Y-91873959D01*
X207570000Y-92393959D02*
X213562000Y-92393959D01*
X212006000Y-95913959D02*
X216547000Y-95913959D01*
X204268000Y-97354959D02*
X216864000Y-97354959D01*
X204721000Y-95553959D02*
X209126000Y-95553959D01*
X212006000Y-96353959D02*
X216682000Y-96353959D01*
X204585000Y-95913959D02*
X209126000Y-95913959D01*
X204461000Y-96313959D02*
X209126000Y-96313959D01*
X204302000Y-97073959D02*
X216830000Y-97073959D01*
X205523000Y-94153959D02*
X209126000Y-94153959D01*
X204845000Y-95273959D02*
X209126000Y-95273959D01*
X212006000Y-95473959D02*
X216377000Y-95473959D01*
X212006000Y-94953959D02*
X216124000Y-94953959D01*
X207102000Y-92673959D02*
X214030000Y-92673959D01*
X212006000Y-94153959D02*
X215609000Y-94153959D01*
X212006000Y-94433959D02*
X215809000Y-94433959D01*
X206366000Y-104187041D02*
X207616000Y-104187041D01*
X212006000Y-94793959D02*
X216034000Y-94793959D01*
X212006000Y-94833959D02*
X216057000Y-94833959D01*
X212006000Y-94673959D02*
X215963000Y-94673959D01*
X212006000Y-95433959D02*
X216359000Y-95433959D01*
X207426000Y-92473959D02*
X213706000Y-92473959D01*
X204440000Y-96393959D02*
X209126000Y-96393959D01*
X212006000Y-96713959D02*
X216767000Y-96713959D01*
X205554000Y-94113959D02*
X209126000Y-94113959D01*
X204429000Y-96433959D02*
X209126000Y-96433959D01*
X208983000Y-91833959D02*
X212149000Y-91833959D01*
X212006000Y-95353959D02*
X216324000Y-95353959D01*
X205350000Y-94393959D02*
X209126000Y-94393959D01*
X205145000Y-94713959D02*
X209126000Y-94713959D01*
X204400000Y-96553959D02*
X209126000Y-96553959D01*
X206328000Y-93273959D02*
X214804000Y-93273959D01*
X204342000Y-96833959D02*
X209126000Y-96833959D01*
X212006000Y-94353959D02*
X215754000Y-94353959D01*
X208156000Y-92113959D02*
X212976000Y-92113959D01*
X206077000Y-93513959D02*
X215055000Y-93513959D01*
X212006000Y-94713959D02*
X215987000Y-94713959D01*
X205323000Y-94433959D02*
X209126000Y-94433959D01*
X207227000Y-92593959D02*
X213905000Y-92593959D01*
X208357000Y-92033959D02*
X212775000Y-92033959D01*
X204350000Y-96793959D02*
X209126000Y-96793959D01*
X204658000Y-95713959D02*
X209126000Y-95713959D01*
X212006000Y-94513959D02*
X215862000Y-94513959D01*
X206372000Y-93233959D02*
X214760000Y-93233959D01*
X204242000Y-97714959D02*
X216890000Y-97714959D01*
X205584000Y-94073959D02*
X209126000Y-94073959D01*
X205747000Y-93873959D02*
X215385000Y-93873959D01*
X204286000Y-97193959D02*
X216846000Y-97193959D01*
X212006000Y-94233959D02*
X215668000Y-94233959D01*
X205616000Y-94033959D02*
X215516000Y-94033959D01*
X206559000Y-93073959D02*
X214573000Y-93073959D01*
X204410000Y-96513959D02*
X209126000Y-96513959D01*
X205194000Y-94633959D02*
X209126000Y-94633959D01*
X205075000Y-94833959D02*
X209126000Y-94833959D01*
X212006000Y-94993959D02*
X216146000Y-94993959D01*
X204365000Y-96713959D02*
X209126000Y-96713959D01*
X206038000Y-93553959D02*
X215094000Y-93553959D01*
X205219000Y-94593959D02*
X209126000Y-94593959D01*
X212006000Y-95393959D02*
X216342000Y-95393959D01*
X212006000Y-96633959D02*
X216750000Y-96633959D01*
X206158000Y-93433959D02*
X214974000Y-93433959D01*
X212006000Y-94193959D02*
X215639000Y-94193959D01*
X204297000Y-97113959D02*
X216835000Y-97113959D01*
X212006000Y-96433959D02*
X216703000Y-96433959D01*
X206199000Y-93393959D02*
X214933000Y-93393959D01*
X212006000Y-94473959D02*
X215836000Y-94473959D01*
X205296000Y-94473959D02*
X209126000Y-94473959D01*
X212006000Y-95513959D02*
X216394000Y-95513959D01*
X204705000Y-95593959D02*
X209126000Y-95593959D01*
X205999000Y-93593959D02*
X215133000Y-93593959D01*
X212006000Y-96153959D02*
X216625000Y-96153959D01*
X212006000Y-95113959D02*
X216208000Y-95113959D01*
X206659000Y-92993959D02*
X214473000Y-92993959D01*
X205169000Y-94673959D02*
X209126000Y-94673959D01*
X204254000Y-97514959D02*
X216878000Y-97514959D01*
X204291000Y-97153959D02*
X216841000Y-97153959D01*
X212006000Y-96113959D02*
X216613000Y-96113959D01*
X204545000Y-96033959D02*
X209126000Y-96033959D01*
X208254000Y-92073959D02*
X212878000Y-92073959D01*
X207722000Y-92313959D02*
X213410000Y-92313959D01*
X212006000Y-96193959D02*
X216637000Y-96193959D01*
X207497000Y-92433959D02*
X213635000Y-92433959D01*
X206870000Y-92833959D02*
X214262000Y-92833959D01*
X204642000Y-95753959D02*
X209126000Y-95753959D01*
X209538000Y-91713959D02*
X211594000Y-91713959D01*
X212006000Y-95193959D02*
X216248000Y-95193959D01*
X212006000Y-96313959D02*
X216671000Y-96313959D01*
X212006000Y-96473959D02*
X216712000Y-96473959D01*
X205852000Y-93753959D02*
X215280000Y-93753959D01*
X204472000Y-96273959D02*
X209126000Y-96273959D01*
X204374000Y-96673959D02*
X209126000Y-96673959D01*
X212006000Y-95753959D02*
X216490000Y-95753959D01*
X212006000Y-95633959D02*
X216443000Y-95633959D01*
X204450000Y-96353959D02*
X209126000Y-96353959D01*
X204571000Y-95953959D02*
X209126000Y-95953959D01*
X204238000Y-97834959D02*
X216894000Y-97834959D01*
X205781000Y-93833959D02*
X215351000Y-93833959D01*
X204251000Y-97554959D02*
X216881000Y-97554959D01*
X206418000Y-93193959D02*
X214714000Y-93193959D01*
X204321000Y-96953959D02*
X216811000Y-96953959D01*
X204236000Y-97954959D02*
X216896000Y-97954959D01*
X212006000Y-94553959D02*
X215888000Y-94553959D01*
X212006000Y-95273959D02*
X216287000Y-95273959D01*
X204507000Y-96153959D02*
X209126000Y-96153959D01*
X204260000Y-97434959D02*
X216872000Y-97434959D01*
X204276000Y-97273959D02*
X216856000Y-97273959D01*
X206762000Y-92913959D02*
X214370000Y-92913959D01*
X204944000Y-95073959D02*
X209126000Y-95073959D01*
X212006000Y-95593959D02*
X216427000Y-95593959D01*
X207291000Y-92553959D02*
X213841000Y-92553959D01*
X212006000Y-94873959D02*
X216080000Y-94873959D01*
X206609000Y-93033959D02*
X214523000Y-93033959D01*
X212006000Y-96233959D02*
X216649000Y-96233959D01*
X204308000Y-97033959D02*
X216824000Y-97033959D01*
X207358000Y-92513959D02*
X213774000Y-92513959D01*
X205464000Y-94233959D02*
X209126000Y-94233959D01*
X204627000Y-95793959D02*
X209126000Y-95793959D01*
X204884000Y-95193959D02*
X209126000Y-95193959D01*
X212006000Y-95553959D02*
X216411000Y-95553959D01*
X209144000Y-91793959D02*
X211988000Y-91793959D01*
X208062000Y-92153959D02*
X213070000Y-92153959D01*
X212006000Y-95793959D02*
X216505000Y-95793959D01*
X207885000Y-92233959D02*
X213247000Y-92233959D01*
X212006000Y-95033959D02*
X216167000Y-95033959D01*
X207164000Y-92633959D02*
X213968000Y-92633959D01*
X205378000Y-94353959D02*
X209126000Y-94353959D01*
X205098000Y-94793959D02*
X209126000Y-94793959D01*
X212006000Y-95953959D02*
X216561000Y-95953959D01*
X205008000Y-94953959D02*
X209126000Y-94953959D01*
X204357000Y-96753959D02*
X209126000Y-96753959D01*
X204237000Y-97874959D02*
X216895000Y-97874959D01*
X204391000Y-96593959D02*
X209126000Y-96593959D01*
X206710000Y-92953959D02*
X214422000Y-92953959D01*
X206926000Y-92793959D02*
X214206000Y-92793959D01*
X212006000Y-95993959D02*
X216574000Y-95993959D01*
X207645000Y-92353959D02*
X213487000Y-92353959D01*
X206464000Y-93153959D02*
X214668000Y-93153959D01*
X212006000Y-96753959D02*
X216775000Y-96753959D01*
X204613000Y-95833959D02*
X209126000Y-95833959D01*
X204240000Y-97754959D02*
X216892000Y-97754959D01*
X210249000Y-91633959D02*
X210883000Y-91633959D01*
X204264000Y-97394959D02*
X216868000Y-97394959D01*
X212006000Y-94593959D02*
X215913000Y-94593959D01*
X205493000Y-94193959D02*
X209126000Y-94193959D01*
X204420000Y-96473959D02*
X209126000Y-96473959D01*
X212006000Y-95233959D02*
X216268000Y-95233959D01*
X212006000Y-95713959D02*
X216474000Y-95713959D01*
X207972000Y-92193959D02*
X213160000Y-92193959D01*
X204328000Y-96913959D02*
X209126000Y-96913959D01*
X212006000Y-96873959D02*
X216797000Y-96873959D01*
X204236000Y-97914959D02*
X216896000Y-97914959D01*
X204239000Y-97794959D02*
X216893000Y-97794959D01*
X206991000Y-104812041D02*
X206991000Y-103562041D01*
X212006000Y-96033959D02*
X216587000Y-96033959D01*
X212006000Y-96273959D02*
X216660000Y-96273959D01*
X204965000Y-95033959D02*
X209126000Y-95033959D01*
X206284000Y-93313959D02*
X214848000Y-93313959D01*
X204244000Y-97674959D02*
X216888000Y-97674959D01*
X204483000Y-96233959D02*
X209126000Y-96233959D01*
X206983000Y-92753959D02*
X214149000Y-92753959D01*
X205924000Y-93673959D02*
X215208000Y-93673959D01*
X212006000Y-96913959D02*
X216804000Y-96913959D01*
X205030000Y-94913959D02*
X209126000Y-94913959D01*
X204808000Y-95353959D02*
X209126000Y-95353959D01*
X205714000Y-93913959D02*
X215418000Y-93913959D01*
X209325000Y-91753959D02*
X211807000Y-91753959D01*
X212006000Y-95153959D02*
X216228000Y-95153959D01*
X204924000Y-95113959D02*
X209126000Y-95113959D01*
X205435000Y-94273959D02*
X209126000Y-94273959D01*
X205816000Y-93793959D02*
X215316000Y-93793959D01*
X205052000Y-94873959D02*
X209126000Y-94873959D01*
X212006000Y-94313959D02*
X215726000Y-94313959D01*
X204986000Y-94993959D02*
X209126000Y-94993959D01*
X204519000Y-96113959D02*
X209126000Y-96113959D01*
X206117000Y-93473959D02*
X215015000Y-93473959D01*
X212006000Y-96393959D02*
X216692000Y-96393959D01*
X204236000Y-97994959D02*
X216896000Y-97994959D01*
X212006000Y-96513959D02*
X216722000Y-96513959D01*
X212006000Y-96793959D02*
X216782000Y-96793959D01*
X204864000Y-95233959D02*
X209126000Y-95233959D01*
X212006000Y-94753959D02*
X216011000Y-94753959D01*
X204558000Y-95993959D02*
X209126000Y-95993959D01*
X207802000Y-92273959D02*
X213330000Y-92273959D01*
X204281000Y-97233959D02*
X216851000Y-97233959D01*
X204532000Y-96073959D02*
X209126000Y-96073959D01*
X205406000Y-94313959D02*
X209126000Y-94313959D01*
X212006000Y-94273959D02*
X215697000Y-94273959D01*
X206816000Y-92873959D02*
X214316000Y-92873959D01*
X212006000Y-96073959D02*
X216600000Y-96073959D01*
X212006000Y-96593959D02*
X216741000Y-96593959D01*
X212006000Y-96553959D02*
X216732000Y-96553959D01*
X204335000Y-96873959D02*
X209126000Y-96873959D01*
X212006000Y-94073959D02*
X215548000Y-94073959D01*
X205121000Y-94753959D02*
X209126000Y-94753959D01*
X208582000Y-91953959D02*
X212550000Y-91953959D01*
X212006000Y-95673959D02*
X216459000Y-95673959D01*
X204248000Y-97594959D02*
X216884000Y-97594959D01*
X208705000Y-91913959D02*
X212427000Y-91913959D01*
X204495000Y-96193959D02*
X209126000Y-96193959D01*
X207042000Y-92713959D02*
X214090000Y-92713959D01*
X212006000Y-94633959D02*
X215938000Y-94633959D01*
X205244000Y-94553959D02*
X209126000Y-94553959D01*
X212006000Y-96833959D02*
X216790000Y-96833959D01*
X212006000Y-94393959D02*
X215782000Y-94393959D01*
X212006000Y-94113959D02*
X215578000Y-94113959D01*
X204246000Y-97634959D02*
X216886000Y-97634959D01*
X206241000Y-93353959D02*
X214891000Y-93353959D01*
X212006000Y-95873959D02*
X216533000Y-95873959D01*
X204755000Y-95473959D02*
X209126000Y-95473959D01*
X204790000Y-95393959D02*
X209126000Y-95393959D01*
X204272000Y-97314959D02*
X216860000Y-97314959D01*
X204257000Y-97474959D02*
X216875000Y-97474959D01*
X205648000Y-93993959D02*
X215484000Y-93993959D01*
X212006000Y-94913959D02*
X216102000Y-94913959D01*
X204689000Y-95633959D02*
X209126000Y-95633959D01*
X204738000Y-95513959D02*
X209126000Y-95513959D01*
X204673000Y-95673959D02*
X209126000Y-95673959D01*
X205270000Y-94513959D02*
X209126000Y-94513959D01*
X212006000Y-95073959D02*
X216188000Y-95073959D01*
X212006000Y-95313959D02*
X216305000Y-95313959D01*
X204773000Y-95433959D02*
X209126000Y-95433959D01*
X212006000Y-95833959D02*
X216519000Y-95833959D01*
X205681000Y-93953959D02*
X215451000Y-93953959D01*
X216936000Y-97994959D02*
G75*
G03*
X216936000Y-97994959I-6370000J0D01*
G01*
%TO.C,D2*%
X197180000Y-67445000D02*
X193120000Y-67445000D01*
X193120000Y-69715000D02*
X197180000Y-69715000D01*
X193120000Y-67445000D02*
X193120000Y-69715000D01*
%TO.C,D3*%
X193120000Y-72255000D02*
X197180000Y-72255000D01*
X197180000Y-69985000D02*
X193120000Y-69985000D01*
X193120000Y-69985000D02*
X193120000Y-72255000D01*
%TO.C,R5*%
X199932936Y-77110000D02*
X201387064Y-77110000D01*
X199932936Y-75290000D02*
X201387064Y-75290000D01*
%TO.C,FTDI*%
X217230000Y-82864000D02*
X215900000Y-82864000D01*
X217230000Y-67504000D02*
X214570000Y-67504000D01*
X214570000Y-80264000D02*
X214570000Y-67504000D01*
X217230000Y-81534000D02*
X217230000Y-82864000D01*
X217230000Y-80264000D02*
X217230000Y-67504000D01*
X217230000Y-80264000D02*
X214570000Y-80264000D01*
%TD*%
D13*
%TO.C,POWSEL*%
X178280000Y-72740000D03*
%TD*%
M02*
