%TF.GenerationSoftware,KiCad,Pcbnew,(6.0.7)*%
%TF.CreationDate,2022-10-29T10:50:57-05:00*%
%TF.ProjectId,BlastGate R2,426c6173-7447-4617-9465-2052322e6b69,rev?*%
%TF.SameCoordinates,Original*%
%TF.FileFunction,Legend,Bot*%
%TF.FilePolarity,Positive*%
%FSLAX46Y46*%
G04 Gerber Fmt 4.6, Leading zero omitted, Abs format (unit mm)*
G04 Created by KiCad (PCBNEW (6.0.7)) date 2022-10-29 10:50:57*
%MOMM*%
%LPD*%
G01*
G04 APERTURE LIST*
%ADD10C,0.150000*%
%ADD11C,0.127000*%
%ADD12C,0.120000*%
G04 APERTURE END LIST*
D10*
%TO.C,R6*%
X197302380Y-86191190D02*
X197302380Y-85819761D01*
X197302380Y-86005476D02*
X196302380Y-86005476D01*
X196445238Y-85943571D01*
X196540476Y-85881666D01*
X196588095Y-85819761D01*
X196302380Y-86593571D02*
X196302380Y-86655476D01*
X196350000Y-86717380D01*
X196397619Y-86748333D01*
X196492857Y-86779285D01*
X196683333Y-86810238D01*
X196921428Y-86810238D01*
X197111904Y-86779285D01*
X197207142Y-86748333D01*
X197254761Y-86717380D01*
X197302380Y-86655476D01*
X197302380Y-86593571D01*
X197254761Y-86531666D01*
X197207142Y-86500714D01*
X197111904Y-86469761D01*
X196921428Y-86438809D01*
X196683333Y-86438809D01*
X196492857Y-86469761D01*
X196397619Y-86500714D01*
X196350000Y-86531666D01*
X196302380Y-86593571D01*
X197302380Y-87088809D02*
X196302380Y-87088809D01*
X197302380Y-87460238D02*
X196730952Y-87181666D01*
X196302380Y-87460238D02*
X196873809Y-87088809D01*
D11*
%TO.C,C11*%
X209731428Y-71174428D02*
X209755619Y-71150238D01*
X209779809Y-71077666D01*
X209779809Y-71029285D01*
X209755619Y-70956714D01*
X209707238Y-70908333D01*
X209658857Y-70884142D01*
X209562095Y-70859952D01*
X209489523Y-70859952D01*
X209392761Y-70884142D01*
X209344380Y-70908333D01*
X209296000Y-70956714D01*
X209271809Y-71029285D01*
X209271809Y-71077666D01*
X209296000Y-71150238D01*
X209320190Y-71174428D01*
X209779809Y-71658238D02*
X209779809Y-71367952D01*
X209779809Y-71513095D02*
X209271809Y-71513095D01*
X209344380Y-71464714D01*
X209392761Y-71416333D01*
X209416952Y-71367952D01*
X209779809Y-72142047D02*
X209779809Y-71851761D01*
X209779809Y-71996904D02*
X209271809Y-71996904D01*
X209344380Y-71948523D01*
X209392761Y-71900142D01*
X209416952Y-71851761D01*
D10*
%TO.C,U1*%
X179032380Y-75438095D02*
X179841904Y-75438095D01*
X179937142Y-75485714D01*
X179984761Y-75533333D01*
X180032380Y-75628571D01*
X180032380Y-75819047D01*
X179984761Y-75914285D01*
X179937142Y-75961904D01*
X179841904Y-76009523D01*
X179032380Y-76009523D01*
X180032380Y-77009523D02*
X180032380Y-76438095D01*
X180032380Y-76723809D02*
X179032380Y-76723809D01*
X179175238Y-76628571D01*
X179270476Y-76533333D01*
X179318095Y-76438095D01*
%TO.C,U2*%
X197826380Y-77089095D02*
X198635904Y-77089095D01*
X198731142Y-77136714D01*
X198778761Y-77184333D01*
X198826380Y-77279571D01*
X198826380Y-77470047D01*
X198778761Y-77565285D01*
X198731142Y-77612904D01*
X198635904Y-77660523D01*
X197826380Y-77660523D01*
X197921619Y-78089095D02*
X197874000Y-78136714D01*
X197826380Y-78231952D01*
X197826380Y-78470047D01*
X197874000Y-78565285D01*
X197921619Y-78612904D01*
X198016857Y-78660523D01*
X198112095Y-78660523D01*
X198254952Y-78612904D01*
X198826380Y-78041476D01*
X198826380Y-78660523D01*
%TO.C,R8*%
X204918809Y-89352380D02*
X205290238Y-89352380D01*
X205104523Y-89352380D02*
X205104523Y-88352380D01*
X205166428Y-88495238D01*
X205228333Y-88590476D01*
X205290238Y-88638095D01*
X204516428Y-88352380D02*
X204454523Y-88352380D01*
X204392619Y-88400000D01*
X204361666Y-88447619D01*
X204330714Y-88542857D01*
X204299761Y-88733333D01*
X204299761Y-88971428D01*
X204330714Y-89161904D01*
X204361666Y-89257142D01*
X204392619Y-89304761D01*
X204454523Y-89352380D01*
X204516428Y-89352380D01*
X204578333Y-89304761D01*
X204609285Y-89257142D01*
X204640238Y-89161904D01*
X204671190Y-88971428D01*
X204671190Y-88733333D01*
X204640238Y-88542857D01*
X204609285Y-88447619D01*
X204578333Y-88400000D01*
X204516428Y-88352380D01*
X204021190Y-89352380D02*
X204021190Y-88352380D01*
X203649761Y-89352380D02*
X203928333Y-88780952D01*
X203649761Y-88352380D02*
X204021190Y-88923809D01*
%TO.C,R10*%
X204918809Y-84272380D02*
X205290238Y-84272380D01*
X205104523Y-84272380D02*
X205104523Y-83272380D01*
X205166428Y-83415238D01*
X205228333Y-83510476D01*
X205290238Y-83558095D01*
X204516428Y-83272380D02*
X204454523Y-83272380D01*
X204392619Y-83320000D01*
X204361666Y-83367619D01*
X204330714Y-83462857D01*
X204299761Y-83653333D01*
X204299761Y-83891428D01*
X204330714Y-84081904D01*
X204361666Y-84177142D01*
X204392619Y-84224761D01*
X204454523Y-84272380D01*
X204516428Y-84272380D01*
X204578333Y-84224761D01*
X204609285Y-84177142D01*
X204640238Y-84081904D01*
X204671190Y-83891428D01*
X204671190Y-83653333D01*
X204640238Y-83462857D01*
X204609285Y-83367619D01*
X204578333Y-83320000D01*
X204516428Y-83272380D01*
X204021190Y-84272380D02*
X204021190Y-83272380D01*
X203649761Y-84272380D02*
X203928333Y-83700952D01*
X203649761Y-83272380D02*
X204021190Y-83843809D01*
%TO.C,R9*%
X204918809Y-86812380D02*
X205290238Y-86812380D01*
X205104523Y-86812380D02*
X205104523Y-85812380D01*
X205166428Y-85955238D01*
X205228333Y-86050476D01*
X205290238Y-86098095D01*
X204516428Y-85812380D02*
X204454523Y-85812380D01*
X204392619Y-85860000D01*
X204361666Y-85907619D01*
X204330714Y-86002857D01*
X204299761Y-86193333D01*
X204299761Y-86431428D01*
X204330714Y-86621904D01*
X204361666Y-86717142D01*
X204392619Y-86764761D01*
X204454523Y-86812380D01*
X204516428Y-86812380D01*
X204578333Y-86764761D01*
X204609285Y-86717142D01*
X204640238Y-86621904D01*
X204671190Y-86431428D01*
X204671190Y-86193333D01*
X204640238Y-86002857D01*
X204609285Y-85907619D01*
X204578333Y-85860000D01*
X204516428Y-85812380D01*
X204021190Y-86812380D02*
X204021190Y-85812380D01*
X203649761Y-86812380D02*
X203928333Y-86240952D01*
X203649761Y-85812380D02*
X204021190Y-86383809D01*
%TO.C,C2*%
X209907142Y-76313333D02*
X209954761Y-76265714D01*
X210002380Y-76122857D01*
X210002380Y-76027619D01*
X209954761Y-75884761D01*
X209859523Y-75789523D01*
X209764285Y-75741904D01*
X209573809Y-75694285D01*
X209430952Y-75694285D01*
X209240476Y-75741904D01*
X209145238Y-75789523D01*
X209050000Y-75884761D01*
X209002380Y-76027619D01*
X209002380Y-76122857D01*
X209050000Y-76265714D01*
X209097619Y-76313333D01*
X209097619Y-76694285D02*
X209050000Y-76741904D01*
X209002380Y-76837142D01*
X209002380Y-77075238D01*
X209050000Y-77170476D01*
X209097619Y-77218095D01*
X209192857Y-77265714D01*
X209288095Y-77265714D01*
X209430952Y-77218095D01*
X210002380Y-76646666D01*
X210002380Y-77265714D01*
D12*
%TO.C,R6*%
X197760000Y-87367064D02*
X197760000Y-85912936D01*
X195940000Y-87367064D02*
X195940000Y-85912936D01*
%TO.C,C11*%
X208640000Y-72111252D02*
X208640000Y-70688748D01*
X210460000Y-72111252D02*
X210460000Y-70688748D01*
D10*
%TO.C,U1*%
X185455000Y-74125000D02*
X185455000Y-78275000D01*
X180305000Y-73025000D02*
X180305000Y-78275000D01*
D12*
%TO.C,U2*%
X189000000Y-55985000D02*
X189000000Y-62405000D01*
X207240000Y-80950000D02*
X207240000Y-81730000D01*
X207240000Y-81730000D02*
X206240000Y-81730000D01*
X189000000Y-81730000D02*
X190000000Y-81730000D01*
X207240000Y-55985000D02*
X207240000Y-62405000D01*
X207240000Y-55985000D02*
X189000000Y-55985000D01*
X189000000Y-80950000D02*
X189000000Y-81730000D01*
X207240000Y-62405000D02*
X207620000Y-62405000D01*
%TO.C,R8*%
X203742936Y-87990000D02*
X205197064Y-87990000D01*
X203742936Y-89810000D02*
X205197064Y-89810000D01*
%TO.C,R10*%
X203742936Y-84730000D02*
X205197064Y-84730000D01*
X203742936Y-82910000D02*
X205197064Y-82910000D01*
%TO.C,R9*%
X203742936Y-87270000D02*
X205197064Y-87270000D01*
X203742936Y-85450000D02*
X205197064Y-85450000D01*
%TO.C,C2*%
X210460000Y-75768748D02*
X210460000Y-77191252D01*
X208640000Y-75768748D02*
X208640000Y-77191252D01*
%TD*%
M02*
