%TF.GenerationSoftware,KiCad,Pcbnew,(6.0.7)*%
%TF.CreationDate,2022-10-29T10:50:57-05:00*%
%TF.ProjectId,BlastGate R2,426c6173-7447-4617-9465-2052322e6b69,rev?*%
%TF.SameCoordinates,Original*%
%TF.FileFunction,Soldermask,Bot*%
%TF.FilePolarity,Negative*%
%FSLAX46Y46*%
G04 Gerber Fmt 4.6, Leading zero omitted, Abs format (unit mm)*
G04 Created by KiCad (PCBNEW (6.0.7)) date 2022-10-29 10:50:57*
%MOMM*%
%LPD*%
G01*
G04 APERTURE LIST*
G04 Aperture macros list*
%AMRoundRect*
0 Rectangle with rounded corners*
0 $1 Rounding radius*
0 $2 $3 $4 $5 $6 $7 $8 $9 X,Y pos of 4 corners*
0 Add a 4 corners polygon primitive as box body*
4,1,4,$2,$3,$4,$5,$6,$7,$8,$9,$2,$3,0*
0 Add four circle primitives for the rounded corners*
1,1,$1+$1,$2,$3*
1,1,$1+$1,$4,$5*
1,1,$1+$1,$6,$7*
1,1,$1+$1,$8,$9*
0 Add four rect primitives between the rounded corners*
20,1,$1+$1,$2,$3,$4,$5,0*
20,1,$1+$1,$4,$5,$6,$7,0*
20,1,$1+$1,$6,$7,$8,$9,0*
20,1,$1+$1,$8,$9,$2,$3,0*%
G04 Aperture macros list end*
%ADD10C,1.524000*%
%ADD11O,2.200000X3.500000*%
%ADD12R,1.500000X2.500000*%
%ADD13O,1.500000X2.500000*%
%ADD14R,1.700000X1.700000*%
%ADD15O,1.700000X1.700000*%
%ADD16C,3.000000*%
%ADD17R,1.600000X1.600000*%
%ADD18C,1.600000*%
%ADD19O,0.950000X1.250000*%
%ADD20O,1.550000X0.890000*%
%ADD21R,2.400000X2.400000*%
%ADD22C,2.400000*%
%ADD23O,1.600000X1.600000*%
%ADD24R,2.200000X2.200000*%
%ADD25O,2.200000X2.200000*%
%ADD26C,4.300000*%
%ADD27RoundRect,0.250000X0.625000X-0.400000X0.625000X0.400000X-0.625000X0.400000X-0.625000X-0.400000X0*%
%ADD28RoundRect,0.250000X0.650000X-0.412500X0.650000X0.412500X-0.650000X0.412500X-0.650000X-0.412500X0*%
%ADD29R,0.802000X1.505000*%
%ADD30R,3.502000X2.613000*%
%ADD31R,2.000000X0.900000*%
%ADD32R,0.900000X2.000000*%
%ADD33R,5.000000X5.000000*%
%ADD34RoundRect,0.250000X-0.400000X-0.625000X0.400000X-0.625000X0.400000X0.625000X-0.400000X0.625000X0*%
%ADD35RoundRect,0.250000X-0.650000X0.412500X-0.650000X-0.412500X0.650000X-0.412500X0.650000X0.412500X0*%
G04 APERTURE END LIST*
D10*
%TO.C,J4*%
X174117000Y-60325000D03*
X174117000Y-67945000D03*
X180467000Y-62230000D03*
X183007000Y-63500000D03*
X180467000Y-64770000D03*
X183007000Y-66040000D03*
%TD*%
%TO.C,POWSEL*%
X176530000Y-74740000D03*
X176530000Y-78740000D03*
X176530000Y-82740000D03*
X172280000Y-84740000D03*
X178280000Y-72740000D03*
X178280000Y-84740000D03*
X172280000Y-72740000D03*
%TD*%
D11*
%TO.C,SW2*%
X206212000Y-107104500D03*
X214412000Y-107104500D03*
D12*
X208312000Y-107104500D03*
D13*
X210312000Y-107104500D03*
X212312000Y-107104500D03*
%TD*%
D14*
%TO.C,SERVO*%
X215900000Y-90282000D03*
D15*
X215900000Y-87742000D03*
X215900000Y-85202000D03*
%TD*%
D16*
%TO.C,REF\u002A\u002A*%
X215900000Y-58420000D03*
%TD*%
D17*
%TO.C,C12*%
X190500000Y-94719590D03*
D18*
X190500000Y-92219590D03*
%TD*%
D10*
%TO.C,PROG*%
X186690000Y-75184000D03*
X186690000Y-80264000D03*
%TD*%
D19*
%TO.C,J3*%
X175129000Y-88808000D03*
X175129000Y-93808000D03*
D20*
X172429000Y-87808000D03*
X172429000Y-94808000D03*
%TD*%
D21*
%TO.C,C10*%
X196850000Y-103609590D03*
D22*
X196850000Y-98609590D03*
%TD*%
D17*
%TO.C,C4*%
X182880000Y-92179590D03*
D18*
X182880000Y-89679590D03*
%TD*%
D21*
%TO.C,C8*%
X182880000Y-103393549D03*
D22*
X182880000Y-98393549D03*
%TD*%
D17*
%TO.C,C3*%
X186690000Y-87099590D03*
D18*
X186690000Y-84599590D03*
%TD*%
D17*
%TO.C,C13*%
X192786000Y-88900000D03*
D18*
X192786000Y-86400000D03*
%TD*%
D17*
%TO.C,SW1*%
X208915000Y-88773000D03*
D23*
X208915000Y-86233000D03*
X208915000Y-83693000D03*
X201295000Y-83693000D03*
X201295000Y-86233000D03*
X201295000Y-88773000D03*
%TD*%
D10*
%TO.C,RST*%
X216916000Y-64135000D03*
X211836000Y-64135000D03*
%TD*%
D24*
%TO.C,D6*%
X186690000Y-63500000D03*
D25*
X186690000Y-71120000D03*
%TD*%
D21*
%TO.C,C5*%
X210566000Y-100494959D03*
D22*
X210566000Y-95494959D03*
%TD*%
D26*
%TO.C,REF\u002A\u002A*%
X172339000Y-104521000D03*
%TD*%
D27*
%TO.C,R6*%
X196850000Y-88190000D03*
X196850000Y-85090000D03*
%TD*%
D28*
%TO.C,C11*%
X209550000Y-72962500D03*
X209550000Y-69837500D03*
%TD*%
D29*
%TO.C,U1*%
X180975000Y-73702500D03*
X182245000Y-73702500D03*
X183515000Y-73702500D03*
X184785000Y-73702500D03*
X184785000Y-78697500D03*
X183515000Y-78697500D03*
X182245000Y-78697500D03*
X180975000Y-78697500D03*
D30*
X182880000Y-76200000D03*
%TD*%
D31*
%TO.C,U2*%
X206620000Y-63595000D03*
X206620000Y-64865000D03*
X206620000Y-66135000D03*
X206620000Y-67405000D03*
X206620000Y-68675000D03*
X206620000Y-69945000D03*
X206620000Y-71215000D03*
X206620000Y-72485000D03*
X206620000Y-73755000D03*
X206620000Y-75025000D03*
X206620000Y-76295000D03*
X206620000Y-77565000D03*
X206620000Y-78835000D03*
X206620000Y-80105000D03*
D32*
X203835000Y-81105000D03*
X202565000Y-81105000D03*
X201295000Y-81105000D03*
X200025000Y-81105000D03*
X198755000Y-81105000D03*
X197485000Y-81105000D03*
X196215000Y-81105000D03*
X194945000Y-81105000D03*
X193675000Y-81105000D03*
X192405000Y-81105000D03*
D31*
X189620000Y-80105000D03*
X189620000Y-78835000D03*
X189620000Y-77565000D03*
X189620000Y-76295000D03*
X189620000Y-75025000D03*
X189620000Y-73755000D03*
X189620000Y-72485000D03*
X189620000Y-71215000D03*
X189620000Y-69945000D03*
X189620000Y-68675000D03*
X189620000Y-67405000D03*
X189620000Y-66135000D03*
X189620000Y-64865000D03*
X189620000Y-63595000D03*
D33*
X199120000Y-71095000D03*
%TD*%
D34*
%TO.C,R8*%
X202920000Y-88900000D03*
X206020000Y-88900000D03*
%TD*%
%TO.C,R10*%
X202920000Y-83820000D03*
X206020000Y-83820000D03*
%TD*%
%TO.C,R9*%
X202920000Y-86360000D03*
X206020000Y-86360000D03*
%TD*%
D15*
%TO.C,FTDI*%
X215900000Y-68834000D03*
X215900000Y-71374000D03*
X215900000Y-73914000D03*
X215900000Y-76454000D03*
X215900000Y-78994000D03*
D14*
X215900000Y-81534000D03*
%TD*%
D35*
%TO.C,C2*%
X209550000Y-74917500D03*
X209550000Y-78042500D03*
%TD*%
M02*
