M48
; DRILL file {KiCad (6.0.7)} date Sat Oct 29 10:51:09 2022
; FORMAT={-:-/ absolute / inch / decimal}
; #@! TF.CreationDate,2022-10-29T10:51:09-05:00
; #@! TF.GenerationSoftware,Kicad,Pcbnew,(6.0.7)
; #@! TF.FileFunction,Plated,1,2,PTH
FMAT,2
INCH
; #@! TA.AperFunction,Plated,PTH,ViaDrill
T1C0.0157
; #@! TA.AperFunction,Plated,PTH,ComponentDrill
T2C0.0197
; #@! TA.AperFunction,Plated,PTH,ComponentDrill
T3C0.0217
; #@! TA.AperFunction,Plated,PTH,ComponentDrill
T4C0.0300
; #@! TA.AperFunction,Plated,PTH,ComponentDrill
T5C0.0315
; #@! TA.AperFunction,Plated,PTH,ComponentDrill
T6C0.0354
; #@! TA.AperFunction,Plated,PTH,ComponentDrill
T7C0.0394
; #@! TA.AperFunction,Plated,PTH,ComponentDrill
T8C0.0433
; #@! TA.AperFunction,Plated,PTH,ComponentDrill
T9C0.0472
; #@! TA.AperFunction,Plated,PTH,ComponentDrill
T10C0.0591
%
G90
G05
T1
X7.2Y-3.1
X7.4654Y-2.5537
X7.5Y-2.5
X7.6414Y-2.8
X7.75Y-3.35
X7.755Y-3.55
X7.8Y-2.75
X7.8Y-2.85
X7.9Y-2.75
X7.9Y-2.8
X7.9Y-2.85
X7.9Y-3.1
X7.961Y-2.6
X7.961Y-3.0
X8.035Y-3.13
X8.05Y-3.2
X8.0685Y-2.5193
X8.1Y-2.75
X8.1Y-2.8
X8.1Y-2.85
X8.1Y-3.3
X8.1103Y-3.4993
X8.111Y-3.4
X8.25Y-2.6615
X8.25Y-2.75
X8.25Y-2.9495
X8.25Y-3.0725
X8.3081Y-2.8622
X8.33Y-3.56
X8.395Y-4.06
X8.4Y-2.45
T4
X7.35Y-2.96
X7.35Y-3.16
X8.34Y-2.525
X8.54Y-2.525
T5
X6.95Y-2.9425
X6.95Y-3.1
X6.95Y-3.2575
X7.2Y-3.5307
X7.2Y-3.6291
X7.35Y-3.3307
X7.35Y-3.4291
X7.5Y-3.6307
X7.5Y-3.7291
X7.59Y-3.4016
X7.59Y-3.5
X7.925Y-3.295
X7.925Y-3.395
X7.925Y-3.495
X8.2013Y-4.2167
X8.225Y-3.295
X8.225Y-3.395
X8.225Y-3.495
X8.28Y-4.2167
X8.3587Y-4.2167
T6
X7.105Y-2.45
X7.105Y-2.55
X7.205Y-2.5
X7.205Y-2.6
T7
X6.7827Y-2.8638
X6.7827Y-3.3362
X7.0189Y-2.8638
X7.0189Y-3.3362
X8.5Y-2.71
X8.5Y-2.81
X8.5Y-2.91
X8.5Y-3.01
X8.5Y-3.11
X8.5Y-3.21
X8.5Y-3.3544
X8.5Y-3.4544
X8.5Y-3.5544
T8
X7.35Y-2.5
X7.35Y-2.8
T9
X7.2Y-3.8738
X7.2Y-4.0706
X7.75Y-3.8823
X7.75Y-4.0791
X8.29Y-3.7596
X8.29Y-3.9565
T10
X8.1186Y-4.2167
X8.4414Y-4.2167
T2
G00X6.8013Y-3.457
M15
G01X6.7757Y-3.457
M16
G05
G00X6.8013Y-3.7326
M15
G01X6.7757Y-3.7326
M16
G05
T3
G00X6.8948Y-3.4905
M15
G01X6.8948Y-3.5023
M16
G05
G00X6.8948Y-3.6873
M15
G01X6.8948Y-3.6991
M16
G05
T0
M30
