%TF.GenerationSoftware,KiCad,Pcbnew,(6.0.7)*%
%TF.CreationDate,2022-10-29T10:50:57-05:00*%
%TF.ProjectId,BlastGate R2,426c6173-7447-4617-9465-2052322e6b69,rev?*%
%TF.SameCoordinates,Original*%
%TF.FileFunction,Soldermask,Top*%
%TF.FilePolarity,Negative*%
%FSLAX46Y46*%
G04 Gerber Fmt 4.6, Leading zero omitted, Abs format (unit mm)*
G04 Created by KiCad (PCBNEW (6.0.7)) date 2022-10-29 10:50:57*
%MOMM*%
%LPD*%
G01*
G04 APERTURE LIST*
G04 Aperture macros list*
%AMRoundRect*
0 Rectangle with rounded corners*
0 $1 Rounding radius*
0 $2 $3 $4 $5 $6 $7 $8 $9 X,Y pos of 4 corners*
0 Add a 4 corners polygon primitive as box body*
4,1,4,$2,$3,$4,$5,$6,$7,$8,$9,$2,$3,0*
0 Add four circle primitives for the rounded corners*
1,1,$1+$1,$2,$3*
1,1,$1+$1,$4,$5*
1,1,$1+$1,$6,$7*
1,1,$1+$1,$8,$9*
0 Add four rect primitives between the rounded corners*
20,1,$1+$1,$2,$3,$4,$5,0*
20,1,$1+$1,$4,$5,$6,$7,0*
20,1,$1+$1,$6,$7,$8,$9,0*
20,1,$1+$1,$8,$9,$2,$3,0*%
G04 Aperture macros list end*
%ADD10C,1.524000*%
%ADD11RoundRect,0.250001X-0.462499X-0.624999X0.462499X-0.624999X0.462499X0.624999X-0.462499X0.624999X0*%
%ADD12RoundRect,0.250000X-0.400000X-0.625000X0.400000X-0.625000X0.400000X0.625000X-0.400000X0.625000X0*%
%ADD13RoundRect,0.250000X0.625000X-0.400000X0.625000X0.400000X-0.625000X0.400000X-0.625000X-0.400000X0*%
%ADD14O,2.200000X3.500000*%
%ADD15R,1.500000X2.500000*%
%ADD16O,1.500000X2.500000*%
%ADD17R,1.700000X1.700000*%
%ADD18O,1.700000X1.700000*%
%ADD19C,3.000000*%
%ADD20R,1.600000X1.600000*%
%ADD21C,1.600000*%
%ADD22RoundRect,0.250000X0.412500X0.650000X-0.412500X0.650000X-0.412500X-0.650000X0.412500X-0.650000X0*%
%ADD23RoundRect,0.250000X-0.650000X0.412500X-0.650000X-0.412500X0.650000X-0.412500X0.650000X0.412500X0*%
%ADD24R,1.350000X0.400000*%
%ADD25O,0.950000X1.250000*%
%ADD26R,1.550000X1.200000*%
%ADD27R,1.550000X1.500000*%
%ADD28O,1.550000X0.890000*%
%ADD29R,2.400000X2.400000*%
%ADD30C,2.400000*%
%ADD31RoundRect,0.250000X-0.625000X0.400000X-0.625000X-0.400000X0.625000X-0.400000X0.625000X0.400000X0*%
%ADD32O,1.600000X1.600000*%
%ADD33RoundRect,0.250000X0.650000X-0.412500X0.650000X0.412500X-0.650000X0.412500X-0.650000X-0.412500X0*%
%ADD34R,2.200000X2.200000*%
%ADD35O,2.200000X2.200000*%
%ADD36C,4.300000*%
G04 APERTURE END LIST*
D10*
%TO.C,J4*%
X174117000Y-60325000D03*
X174117000Y-67945000D03*
X180467000Y-62230000D03*
X183007000Y-63500000D03*
X180467000Y-64770000D03*
X183007000Y-66040000D03*
%TD*%
D11*
%TO.C,D4*%
X194092500Y-73660000D03*
X197067500Y-73660000D03*
%TD*%
D12*
%TO.C,R2*%
X199110000Y-68580000D03*
X202210000Y-68580000D03*
%TD*%
D10*
%TO.C,POWSEL*%
X176530000Y-74740000D03*
X176530000Y-78740000D03*
X176530000Y-82740000D03*
X172280000Y-84740000D03*
X178280000Y-72740000D03*
X178280000Y-84740000D03*
X172280000Y-72740000D03*
%TD*%
D12*
%TO.C,R1*%
X199110000Y-66040000D03*
X202210000Y-66040000D03*
%TD*%
D13*
%TO.C,R7*%
X196850000Y-88190000D03*
X196850000Y-85090000D03*
%TD*%
D14*
%TO.C,SW2*%
X206212000Y-107104500D03*
X214412000Y-107104500D03*
D15*
X208312000Y-107104500D03*
D16*
X210312000Y-107104500D03*
X212312000Y-107104500D03*
%TD*%
D11*
%TO.C,D1*%
X194092500Y-66040000D03*
X197067500Y-66040000D03*
%TD*%
D17*
%TO.C,SERVO*%
X215900000Y-90282000D03*
D18*
X215900000Y-87742000D03*
X215900000Y-85202000D03*
%TD*%
D19*
%TO.C,REF\u002A\u002A*%
X215900000Y-58420000D03*
%TD*%
D12*
%TO.C,R3*%
X199110000Y-71120000D03*
X202210000Y-71120000D03*
%TD*%
D20*
%TO.C,C12*%
X190500000Y-94719590D03*
D21*
X190500000Y-92219590D03*
%TD*%
D10*
%TO.C,PROG*%
X186690000Y-75184000D03*
X186690000Y-80264000D03*
%TD*%
D22*
%TO.C,C6*%
X202222500Y-93472000D03*
X199097500Y-93472000D03*
%TD*%
D23*
%TO.C,C9*%
X209550000Y-74917500D03*
X209550000Y-78042500D03*
%TD*%
D24*
%TO.C,J3*%
X175129000Y-90008000D03*
X175129000Y-90658000D03*
X175129000Y-91308000D03*
X175129000Y-91958000D03*
X175129000Y-92608000D03*
D25*
X175129000Y-88808000D03*
D26*
X172429000Y-88408000D03*
D27*
X172429000Y-92308000D03*
D25*
X175129000Y-93808000D03*
D28*
X172429000Y-87808000D03*
D27*
X172429000Y-90308000D03*
D28*
X172429000Y-94808000D03*
D26*
X172429000Y-94208000D03*
%TD*%
D29*
%TO.C,C10*%
X196850000Y-103609590D03*
D30*
X196850000Y-98609590D03*
%TD*%
D20*
%TO.C,C4*%
X182880000Y-92179590D03*
D21*
X182880000Y-89679590D03*
%TD*%
D29*
%TO.C,C8*%
X182880000Y-103393549D03*
D30*
X182880000Y-98393549D03*
%TD*%
D31*
%TO.C,R11*%
X209550000Y-69850000D03*
X209550000Y-72950000D03*
%TD*%
D20*
%TO.C,C3*%
X186690000Y-87099590D03*
D21*
X186690000Y-84599590D03*
%TD*%
D20*
%TO.C,C13*%
X192786000Y-88900000D03*
D21*
X192786000Y-86400000D03*
%TD*%
D11*
%TO.C,D5*%
X194092500Y-76200000D03*
X197067500Y-76200000D03*
%TD*%
D20*
%TO.C,SW1*%
X208915000Y-88773000D03*
D32*
X208915000Y-86233000D03*
X208915000Y-83693000D03*
X201295000Y-83693000D03*
X201295000Y-86233000D03*
X201295000Y-88773000D03*
%TD*%
D33*
%TO.C,C7*%
X209550000Y-67602500D03*
X209550000Y-64477500D03*
%TD*%
D10*
%TO.C,RST*%
X216916000Y-64135000D03*
X211836000Y-64135000D03*
%TD*%
D34*
%TO.C,D6*%
X186690000Y-63500000D03*
D35*
X186690000Y-71120000D03*
%TD*%
D12*
%TO.C,R4*%
X199110000Y-73660000D03*
X202210000Y-73660000D03*
%TD*%
D29*
%TO.C,C5*%
X210566000Y-100494959D03*
D30*
X210566000Y-95494959D03*
%TD*%
D11*
%TO.C,D2*%
X194092500Y-68580000D03*
X197067500Y-68580000D03*
%TD*%
%TO.C,D3*%
X194092500Y-71120000D03*
X197067500Y-71120000D03*
%TD*%
D12*
%TO.C,R5*%
X199110000Y-76200000D03*
X202210000Y-76200000D03*
%TD*%
D36*
%TO.C,REF\u002A\u002A*%
X172339000Y-104521000D03*
%TD*%
D18*
%TO.C,FTDI*%
X215900000Y-68834000D03*
X215900000Y-71374000D03*
X215900000Y-73914000D03*
X215900000Y-76454000D03*
X215900000Y-78994000D03*
D17*
X215900000Y-81534000D03*
%TD*%
M02*
