%TF.GenerationSoftware,KiCad,Pcbnew,(6.0.7)*%
%TF.CreationDate,2022-10-29T10:50:57-05:00*%
%TF.ProjectId,BlastGate R2,426c6173-7447-4617-9465-2052322e6b69,rev?*%
%TF.SameCoordinates,Original*%
%TF.FileFunction,Paste,Bot*%
%TF.FilePolarity,Positive*%
%FSLAX46Y46*%
G04 Gerber Fmt 4.6, Leading zero omitted, Abs format (unit mm)*
G04 Created by KiCad (PCBNEW (6.0.7)) date 2022-10-29 10:50:57*
%MOMM*%
%LPD*%
G01*
G04 APERTURE LIST*
G04 Aperture macros list*
%AMRoundRect*
0 Rectangle with rounded corners*
0 $1 Rounding radius*
0 $2 $3 $4 $5 $6 $7 $8 $9 X,Y pos of 4 corners*
0 Add a 4 corners polygon primitive as box body*
4,1,4,$2,$3,$4,$5,$6,$7,$8,$9,$2,$3,0*
0 Add four circle primitives for the rounded corners*
1,1,$1+$1,$2,$3*
1,1,$1+$1,$4,$5*
1,1,$1+$1,$6,$7*
1,1,$1+$1,$8,$9*
0 Add four rect primitives between the rounded corners*
20,1,$1+$1,$2,$3,$4,$5,0*
20,1,$1+$1,$4,$5,$6,$7,0*
20,1,$1+$1,$6,$7,$8,$9,0*
20,1,$1+$1,$8,$9,$2,$3,0*%
G04 Aperture macros list end*
%ADD10RoundRect,0.250000X0.625000X-0.400000X0.625000X0.400000X-0.625000X0.400000X-0.625000X-0.400000X0*%
%ADD11RoundRect,0.250000X0.650000X-0.412500X0.650000X0.412500X-0.650000X0.412500X-0.650000X-0.412500X0*%
%ADD12R,0.802000X1.505000*%
%ADD13R,2.101200X1.567800*%
%ADD14R,2.000000X0.900000*%
%ADD15R,0.900000X2.000000*%
%ADD16R,5.000000X5.000000*%
%ADD17RoundRect,0.250000X-0.400000X-0.625000X0.400000X-0.625000X0.400000X0.625000X-0.400000X0.625000X0*%
%ADD18RoundRect,0.250000X-0.650000X0.412500X-0.650000X-0.412500X0.650000X-0.412500X0.650000X0.412500X0*%
G04 APERTURE END LIST*
D10*
%TO.C,R6*%
X196850000Y-88190000D03*
X196850000Y-85090000D03*
%TD*%
D11*
%TO.C,C11*%
X209550000Y-72962500D03*
X209550000Y-69837500D03*
%TD*%
D12*
%TO.C,U1*%
X180975000Y-73702500D03*
X182245000Y-73702500D03*
X183515000Y-73702500D03*
X184785000Y-73702500D03*
X184785000Y-78697500D03*
X183515000Y-78697500D03*
X182245000Y-78697500D03*
X180975000Y-78697500D03*
D13*
X182880000Y-76200000D03*
%TD*%
D14*
%TO.C,U2*%
X206620000Y-63595000D03*
X206620000Y-64865000D03*
X206620000Y-66135000D03*
X206620000Y-67405000D03*
X206620000Y-68675000D03*
X206620000Y-69945000D03*
X206620000Y-71215000D03*
X206620000Y-72485000D03*
X206620000Y-73755000D03*
X206620000Y-75025000D03*
X206620000Y-76295000D03*
X206620000Y-77565000D03*
X206620000Y-78835000D03*
X206620000Y-80105000D03*
D15*
X203835000Y-81105000D03*
X202565000Y-81105000D03*
X201295000Y-81105000D03*
X200025000Y-81105000D03*
X198755000Y-81105000D03*
X197485000Y-81105000D03*
X196215000Y-81105000D03*
X194945000Y-81105000D03*
X193675000Y-81105000D03*
X192405000Y-81105000D03*
D14*
X189620000Y-80105000D03*
X189620000Y-78835000D03*
X189620000Y-77565000D03*
X189620000Y-76295000D03*
X189620000Y-75025000D03*
X189620000Y-73755000D03*
X189620000Y-72485000D03*
X189620000Y-71215000D03*
X189620000Y-69945000D03*
X189620000Y-68675000D03*
X189620000Y-67405000D03*
X189620000Y-66135000D03*
X189620000Y-64865000D03*
X189620000Y-63595000D03*
D16*
X199120000Y-71095000D03*
%TD*%
D17*
%TO.C,R8*%
X202920000Y-88900000D03*
X206020000Y-88900000D03*
%TD*%
%TO.C,R10*%
X202920000Y-83820000D03*
X206020000Y-83820000D03*
%TD*%
%TO.C,R9*%
X202920000Y-86360000D03*
X206020000Y-86360000D03*
%TD*%
D18*
%TO.C,C2*%
X209550000Y-74917500D03*
X209550000Y-78042500D03*
%TD*%
M02*
